<svg width="640" height="640" viewBox="0 0 640 640" fill="none" xmlns="http://www.w3.org/2000/svg">
<path d="M517.975 68.316L592.989 202.105L593.223 202.171L593.288 201.937L518.273 68.148L518.04 68.0813L517.975 68.316Z" fill="#FFD786"/>
<path d="M608.502 306.191L381.902 519.248L381.896 519.491L382.138 519.499L608.737 306.441L608.745 306.199L608.502 306.191Z" fill="#FFD786"/>
<path d="M593.031 346.116L366.432 528.24L366.405 528.481L366.647 528.508L593.245 346.384L593.272 346.143L593.031 346.116Z" fill="#FFD786"/>
<path d="M48.2453 237.24L219.413 173.311L219.515 173.089L219.293 172.989L48.1249 236.919L48.0245 237.14L48.2453 237.24Z" fill="#FFD786"/>
<path d="M518.17 261.404L200.322 172.984L200.112 173.104L200.23 173.315L518.078 261.735L518.289 261.615L518.17 261.404Z" fill="#FFD786"/>
<path d="M48.1344 359.175L231.381 416.017L231.596 415.904L231.483 415.689L48.2359 358.847L48.0214 358.96L48.1344 359.175Z" fill="#FFD786"/>
<path d="M395.217 528.217L48.2546 375.095L48.0281 375.181L48.1161 375.408L395.078 528.531L395.304 528.444L395.217 528.217Z" fill="#FFD786"/>
<path d="M395.225 567.661L48.263 391.339L48.0322 391.413L48.1073 391.644L395.069 567.968L395.3 567.893L395.225 567.661Z" fill="#FFD786"/>
<path d="M381.989 239.325L593.104 282.887L593.306 282.753L593.173 282.551L382.059 238.989L381.856 239.123L381.989 239.325Z" fill="#FFD786"/>
<path d="M404.677 240.519L48.1625 288.465L48.015 288.659L48.2082 288.807L404.722 240.859L404.869 240.665L404.677 240.519Z" fill="#FFD786"/>
<path d="M48.1402 355.825L414.632 455.845L414.843 455.725L414.723 455.513L48.2303 355.495L48.0198 355.615L48.1402 355.825Z" fill="#FFD786"/>
<path d="M387.128 455.828L593.225 334.669L593.286 334.435L593.052 334.373L386.953 455.532L386.893 455.767L387.128 455.828Z" fill="#FFD786"/>
<path d="M552.867 79.6708L48.1271 260.776L48.024 260.996L48.2432 261.1L552.983 79.9935L553.087 79.7748L552.867 79.6708Z" fill="#FFD786"/>
<path d="M231.428 299.72L48.1817 303.416L48.0135 303.591L48.189 303.76L231.434 300.063L231.602 299.888L231.428 299.72Z" fill="#FFD786"/>
<path d="M200.275 300.063L593.136 306.929L593.311 306.761L593.141 306.587L200.28 299.72L200.105 299.888L200.275 300.063Z" fill="#FFD786"/>
<path d="M209.6 416.019L593.18 318.963L593.305 318.755L593.096 318.631L209.516 415.687L209.391 415.895L209.6 416.019Z" fill="#FFD786"/>
<path d="M531.306 87.7721L531.136 87.4681L531.332 87.3974L531.502 87.7001L531.306 87.7721Z" fill="#FFD786"/>
<path d="M373.655 557.086L373.46 556.986L373.725 556.736L373.921 556.835L373.655 557.086Z" fill="#FFD786"/>
<path d="M373.277 518.909L373.065 518.816L373.367 518.575L373.579 518.668L373.277 518.909Z" fill="#FFD786"/>
<path d="M204.689 174.556L204.352 174.461L204.898 174.257L205.236 174.351L204.689 174.556Z" fill="#FFD786"/>
<path d="M259.104 185.44L258.532 185.281L258.868 185.16L259.44 185.32L259.104 185.44Z" fill="#FFD786"/>
<path d="M217.743 173.935L217.18 173.777L217.509 173.655L218.072 173.812L217.743 173.935Z" fill="#FFD786"/>
<path d="M229.15 411.072L228.522 410.877L228.905 410.78L229.534 410.976L229.15 411.072Z" fill="#FFD786"/>
<path d="M78.113 364.005L73.3051 362.693L72.9718 362.603L72.3275 362.427L62.7838 359.467L68.5697 361.045L78.113 364.005Z" fill="#FFD786"/>
<path d="M380.125 517.676L379.771 517.52L379.952 517.375L380.305 517.531L380.125 517.676Z" fill="#FFD786"/>
<path d="M379.547 555.822L379.221 555.656L379.38 555.505L379.705 555.67L379.639 555.735L379.547 555.822Z" fill="#FFD786"/>
<path d="M382.991 239.532L382.38 239.405L383.408 239.267L384.019 239.393L382.991 239.532Z" fill="#FFD786"/>
<path d="M400.768 447.809L400.305 447.683L400.553 447.537L401.016 447.664L400.768 447.809Z" fill="#FFD786"/>
<path d="M248.353 406.213L247.68 406.029L248.085 405.927L248.759 406.111L248.353 406.213Z" fill="#FFD786"/>
<path d="M390.877 449.363L390.6 449.287L391.013 449.044L391.291 449.119L390.877 449.363Z" fill="#FFD786"/>
<path d="M527.303 84.9534L527.201 84.7721L527.528 84.6534L527.631 84.8361L527.303 84.9534Z" fill="#FFD786"/>
<path d="M245.75 185.977L245.406 185.883L245.966 185.681L246.305 185.776L246.31 185.777L245.75 185.977Z" fill="#FFD786"/>
<path d="M214.051 410.641L213.673 410.524L214.312 410.363L214.689 410.48L214.051 410.641Z" fill="#FFD786"/>
<path d="M232.184 406.053L231.78 405.943L232.456 405.772L232.86 405.881L232.184 406.053Z" fill="#FFD786"/>
<path d="M527.858 89.0081L527.689 88.7041L527.885 88.6334L528.056 88.9374L527.858 89.0081Z" fill="#FFD786"/>
<path d="M378.753 559.676L378.559 559.577L378.824 559.327L379.02 559.427L378.753 559.676Z" fill="#FFD786"/>
<path d="M379.209 521.528L378.996 521.434L379.297 521.192L379.511 521.286L379.209 521.528Z" fill="#FFD786"/>
<path d="M216.021 177.708L215.684 177.613L216.231 177.409L216.568 177.503L216.021 177.708Z" fill="#FFD786"/>
<path d="M206.412 178.167L205.849 178.009L206.177 177.888L206.74 178.044L206.638 178.081L206.412 178.167Z" fill="#FFD786"/>
<path d="M247.512 189.6L246.94 189.44L247.274 189.32L247.848 189.479L247.512 189.6Z" fill="#FFD786"/>
<path d="M216.04 414.389L215.412 414.195L215.795 414.097L216.423 414.293L216.04 414.389Z" fill="#FFD786"/>
<path d="M374.193 522.443L373.84 522.287L374.02 522.141L374.375 522.298L374.193 522.443Z" fill="#FFD786"/>
<path d="M374.448 560.615L374.123 560.449L374.283 560.3L374.608 560.465L374.448 560.615Z" fill="#FFD786"/>
<path d="M386.267 243.341L385.249 243.131L385.867 243.048L386.883 243.259L386.267 243.341Z" fill="#FFD786"/>
<path d="M404.655 244.001L404.045 243.876L404.685 243.789L404.801 243.879L404.713 243.993L404.655 244.001Z" fill="#FFD786"/>
<path d="M392.188 452.852L391.725 452.727L391.973 452.58L392.437 452.707L392.188 452.852Z" fill="#FFD786"/>
<path d="M51.9042 359.985L48.1583 358.963L48.1255 358.905L48.2359 358.847L51.9042 359.985Z" fill="#FFD786"/>
<path d="M234.312 409.767L233.639 409.583L234.045 409.48L234.719 409.664L234.312 409.767Z" fill="#FFD786"/>
<path d="M399.457 451.704L399.18 451.628L399.593 451.385L399.871 451.461L399.457 451.704Z" fill="#FFD786"/>
<path d="M257.344 189.203L257 189.107L257.56 188.907L257.903 189.001L257.344 189.203Z" fill="#FFD786"/>
<path d="M530.751 91.1014L530.648 90.9201L530.976 90.8027L531.077 90.9841L530.751 91.1014Z" fill="#FFD786"/>
<path d="M227.161 414.708L226.784 414.591L227.422 414.429L227.8 414.547L227.161 414.708Z" fill="#FFD786"/>
<path d="M246.224 409.885L245.82 409.775L246.496 409.603L246.638 409.643L246.9 409.713L246.224 409.885Z" fill="#FFD786"/>
<path d="M54.2057 235.216H54.0338V394.675L59.4182 397.376V233.085L54.0338 235.097V235.216H54.2057L54.2655 235.377L59.0749 233.58V396.82L54.377 394.463V235.216H54.2057Z" fill="#FFD786"/>
<path d="M59.2109 233.501L64.565 234.641V395.327L59.1973 396.933L59.0817 397.148L59.2958 397.263L64.9082 395.583V234.363L59.2822 233.165L59.0786 233.297L59.2109 233.501Z" fill="#FFD786"/>
<path d="M221.666 412.788H221.839V179.325L232.754 182.363V409.805L221.624 412.621L221.666 412.788L221.708 412.955L233.098 410.073V182.101L221.495 178.873V413.008L221.708 412.955L221.666 412.788Z" fill="#FFD786"/>
<path d="M221.667 179.1L221.616 178.936L210.675 182.303V409.577L221.839 413.021V178.867L221.616 178.936L221.667 179.1H221.495V412.556L211.017 409.324V182.556L221.717 179.264L221.667 179.1Z" fill="#FFD786"/>
<path d="M274.524 259.025H274.352V417.56L282.873 419.887V257.76L274.352 258.875V259.025H274.524L274.545 259.195L282.53 258.151V419.437L274.694 417.299V259.025H274.524Z" fill="#FFD786"/>
<path d="M282.675 258.125L290.845 259.396V416.544L282.644 419.5L282.54 419.72L282.76 419.824L291.188 416.785V259.101L282.728 257.785L282.532 257.929L282.676 258.125" fill="#FFD786"/>
<path d="M395.804 450.528H395.976V241.779L384.04 243.292V447.496L395.976 450.753V450.528H395.804L395.849 450.363L384.382 447.233V243.595L395.632 242.168V450.528H395.804Z" fill="#FFD786"/>
<path d="M395.804 241.973L395.769 242.141L406.153 244.311V444.244L395.976 450.228V241.973H395.804H395.632V450.828L406.496 444.441V244.032L395.632 241.763V241.973H395.804Z" fill="#FFD786"/>
<path d="M529.368 88.2841H529.024V415.512L535.993 408.959V99.4015L529.024 86.9694V88.2841H529.368L529.068 88.4521L535.307 99.5814V408.661L529.711 413.924V88.2841H529.368Z" fill="#FFD786"/>
<path d="M529.368 88.2841L529.252 87.9614L519.204 91.5667V413.665L529.711 415.112V87.7961L529.252 87.9614L529.368 88.2841H529.024V414.324L519.891 413.067V92.0494L529.484 88.6081L529.368 88.2841Z" fill="#FFD786"/>
<path d="M583.539 184.899H583.366V363.711L579.944 366.928V178.84L583.388 184.983L583.539 184.899L583.688 184.815L579.601 177.527V367.721L583.709 363.859V184.853L583.688 184.815L583.539 184.899Z" fill="#FFD786"/>
<path d="M579.717 178.02L573.697 180.051V367.496H579.773L579.944 367.325L579.773 367.153H574.04V180.297L579.828 178.345L579.935 178.128L579.717 178.02Z" fill="#FFD786"/>
<path d="M349.395 152.861H349.224V390.095L358.057 391.697V149.569L349.224 152.74V152.861H349.395L349.453 153.023L357.715 150.057V391.285L349.567 389.808V152.861H349.395Z" fill="#FFD786"/>
<path d="M357.885 149.813L357.805 149.965L366.368 154.563V387.323L358.057 391.221V149.813H357.885H357.715V391.761L366.711 387.54V154.357L357.715 149.527V149.813H357.885Z" fill="#FFD786"/>
<path d="M537.636 415.683L48.2087 348.329L48.015 348.476L48.1619 348.669L537.589 416.023L537.783 415.876L537.636 415.683Z" fill="#FFD786"/>
<path d="M573.904 401.591L493.077 393.237V261.88C493.077 261.689 492.923 261.536 492.733 261.536C492.544 261.536 492.391 261.689 492.391 261.88V393.856L573.833 402.273C574.023 402.292 574.191 402.156 574.211 401.967C574.229 401.779 574.093 401.609 573.904 401.591Z" fill="#FFD786"/>
<path d="M482.467 124.289L391.677 154.444C391.497 154.504 391.4 154.697 391.46 154.877C391.52 155.057 391.713 155.155 391.893 155.095L482.683 124.941C482.863 124.881 482.96 124.687 482.9 124.507C482.841 124.327 482.647 124.229 482.467 124.289Z" fill="#FFD786"/>
<path d="M397.163 148.589V241.973C397.163 242.163 397.316 242.316 397.505 242.316C397.696 242.316 397.849 242.163 397.849 241.973V148.589C397.849 148.4 397.696 148.245 397.505 148.245C397.316 148.245 397.163 148.4 397.163 148.589Z" fill="#FFD786"/>
<path d="M397.368 153.184L416.047 161.328L478.294 141.957C478.476 141.9 478.577 141.708 478.521 141.527C478.465 141.345 478.272 141.245 478.092 141.301L416.087 160.597L397.643 152.555C397.469 152.479 397.266 152.559 397.19 152.732C397.114 152.907 397.195 153.109 397.368 153.184Z" fill="#FFD786"/>
<path d="M415.724 160.963V245.103C415.724 245.292 415.877 245.445 416.067 245.445C416.256 245.445 416.411 245.292 416.411 245.103V160.963C416.411 160.773 416.256 160.62 416.067 160.62C415.877 160.62 415.724 160.773 415.724 160.963Z" fill="#FFD786"/>
<path d="M422.983 247.516V165.857L478.293 148.917C478.475 148.861 478.577 148.669 478.521 148.489C478.465 148.308 478.275 148.205 478.093 148.261L422.296 165.349V247.516C422.296 247.705 422.451 247.86 422.64 247.86C422.829 247.86 422.983 247.705 422.983 247.516Z" fill="#FFD786"/>
<path d="M422.467 165.9L427.237 168.681L478.293 153.171C478.475 153.116 478.577 152.924 478.521 152.743C478.467 152.561 478.275 152.459 478.093 152.513L427.324 167.937L422.813 165.307C422.649 165.211 422.439 165.267 422.343 165.431C422.248 165.593 422.303 165.804 422.467 165.9Z" fill="#FFD786"/>
<path d="M426.937 168.309V248.496C426.937 248.685 427.091 248.839 427.28 248.839C427.471 248.839 427.624 248.685 427.624 248.496V168.309C427.624 168.12 427.471 167.967 427.28 167.967C427.091 167.967 426.937 168.12 426.937 168.309Z" fill="#FFD786"/>
<path d="M456.221 155.213V254.523C456.221 254.712 456.375 254.867 456.564 254.867C456.753 254.867 456.908 254.712 456.908 254.523V155.213C456.908 155.023 456.753 154.869 456.564 154.869C456.375 154.869 456.221 155.023 456.221 155.213Z" fill="#FFD786"/>
<path d="M461.148 255.399V154.695L463.911 157.228V256.111C463.911 256.301 464.065 256.455 464.255 256.455C464.444 256.455 464.597 256.301 464.597 256.111V157.077L464.487 156.824L461.037 153.661C460.937 153.569 460.791 153.545 460.667 153.6C460.543 153.655 460.461 153.779 460.461 153.915V255.399C460.461 255.589 460.616 255.743 460.805 255.743C460.995 255.743 461.149 255.589 461.149 255.399" fill="#FFD786"/>
<path d="M544.16 155.62H543.816V242.184L568.605 254.781V187.212L543.816 154.601V155.62H544.16L543.885 155.828L567.919 187.443V253.663L544.503 241.763V155.62H544.16Z" fill="#FFD786"/>
<path d="M568.263 186.984H561.578L544.406 169.045C544.276 168.908 544.059 168.904 543.921 169.035C543.785 169.165 543.78 169.383 543.912 169.52L561.285 187.671H568.263C568.452 187.671 568.605 187.517 568.605 187.328C568.605 187.137 568.452 186.984 568.263 186.984Z" fill="#FFD786"/>
<path d="M561.088 187.328V250.537C561.088 250.728 561.241 250.881 561.432 250.881C561.621 250.881 561.774 250.728 561.774 250.537V187.328C561.774 187.137 561.621 186.984 561.432 186.984C561.241 186.984 561.088 187.137 561.088 187.328Z" fill="#FFD786"/>
<path d="M559.455 249.572V188.737L544.408 172.913C544.277 172.776 544.06 172.771 543.923 172.901C543.785 173.032 543.78 173.249 543.911 173.387L558.768 189.012V249.572C558.768 249.761 558.921 249.915 559.111 249.915C559.301 249.915 559.455 249.761 559.455 249.572Z" fill="#FFD786"/>
<path d="M559.111 188.531H557.381L544.397 176.06C544.26 175.928 544.042 175.933 543.912 176.069C543.78 176.207 543.785 176.424 543.921 176.555L557.104 189.217H559.111C559.301 189.217 559.455 189.064 559.455 188.875C559.455 188.685 559.301 188.531 559.111 188.531Z" fill="#FFD786"/>
<path d="M556.898 188.875V248.621C556.898 248.812 557.053 248.965 557.242 248.965C557.432 248.965 557.586 248.812 557.586 248.621V188.875C557.586 188.684 557.432 188.531 557.242 188.531C557.053 188.531 556.898 188.684 556.898 188.875Z" fill="#FFD786"/>
<path d="M373.721 444.853V270.272L297.1 278.273V424.193L317.257 416.085V276.549C317.257 276.36 317.104 276.207 316.913 276.207C316.724 276.207 316.571 276.36 316.571 276.549V415.62L297.787 423.176V278.892L373.035 271.035V444.853C373.035 445.043 373.188 445.196 373.379 445.196C373.568 445.196 373.721 445.043 373.721 444.853Z" fill="#FFD786"/>
<path d="M316.828 416.185L373.292 430.749C373.476 430.796 373.663 430.685 373.711 430.503C373.757 430.319 373.648 430.132 373.464 430.084L317 415.52C316.816 415.473 316.629 415.584 316.581 415.767C316.535 415.951 316.644 416.137 316.828 416.185Z" fill="#FFD786"/>
<path d="M342.316 290.441L342.288 290.099L322.897 291.671V327.711H342.659V290.068L342.288 290.099L342.316 290.441H341.972V327.024H323.584V292.304L342.344 290.783L342.316 290.441Z" fill="#FFD786"/>
<path d="M346.441 290.441H346.097V327.711H370.243V288.265L346.097 290.123V290.441H346.441L346.467 290.783L369.556 289.007V327.024H346.784V290.441H346.441Z" fill="#FFD786"/>
<path d="M323.24 331.944V332.287H341.972V365.604L323.583 364.361L323.584 331.944H323.24H322.897V365.003L342.659 366.339V331.6H322.897V331.944H323.24Z" fill="#FFD786"/>
<path d="M346.441 331.944H346.097V366.295L370.243 367.688V332.124L346.097 331.593V331.944H346.441L346.433 332.287L369.556 332.795V366.961L346.784 365.647V331.944H346.441Z" fill="#FFD786"/>
<path d="M418.232 270.653H417.889V304.037L484.845 305.208V278.667L417.889 270.264V270.653H418.232L418.189 270.993L484.159 279.272V304.509L418.576 303.363V270.653H418.232Z" fill="#FFD786"/>
<path d="M477.413 304.729V278.036C477.413 277.847 477.259 277.693 477.069 277.693C476.88 277.693 476.727 277.847 476.727 278.036V304.729C476.727 304.919 476.88 305.072 477.069 305.072C477.259 305.072 477.413 304.919 477.413 304.729Z" fill="#FFD786"/>
<path d="M448.719 274.521V304.24C448.719 304.429 448.872 304.583 449.061 304.583C449.252 304.583 449.405 304.429 449.405 304.24V274.521C449.405 274.332 449.252 274.179 449.061 274.179C448.872 274.179 448.719 274.332 448.719 274.521Z" fill="#FFD786"/>
<path d="M454.144 275.203V304.24C454.144 304.429 454.297 304.583 454.488 304.583C454.677 304.583 454.831 304.429 454.831 304.24V275.203C454.831 275.013 454.677 274.859 454.488 274.859C454.297 274.859 454.144 275.013 454.144 275.203Z" fill="#FFD786"/>
<path d="M444.828 274.521V304.189C444.828 304.379 444.981 304.533 445.171 304.533C445.361 304.533 445.515 304.379 445.515 304.189V274.521C445.515 274.332 445.361 274.179 445.171 274.179C444.981 274.179 444.828 274.332 444.828 274.521Z" fill="#FFD786"/>
<path d="M544.16 286.316H543.816V306.239L568.605 306.672V289.423L543.816 285.921V286.316H544.16L544.111 286.656L567.919 290.02V305.973L544.503 305.564V286.316H544.16Z" fill="#FFD786"/>
<path d="M564.221 289.199V306.259C564.221 306.448 564.375 306.601 564.564 306.601C564.753 306.601 564.908 306.448 564.908 306.259V289.199C564.908 289.009 564.753 288.855 564.564 288.855C564.375 288.855 564.221 289.009 564.221 289.199Z" fill="#FFD786"/>
<path d="M555.868 288.019V306.112C555.868 306.303 556.021 306.456 556.212 306.456C556.401 306.456 556.555 306.303 556.555 306.112V288.019C556.555 287.829 556.401 287.676 556.212 287.676C556.021 287.676 555.868 287.829 555.868 288.019Z" fill="#FFD786"/>
<path d="M552.581 287.756V306.055C552.581 306.244 552.734 306.397 552.925 306.397C553.114 306.397 553.268 306.244 553.268 306.055V287.756C553.268 287.567 553.114 287.412 552.925 287.412C552.734 287.412 552.581 287.567 552.581 287.756Z" fill="#FFD786"/>
<path d="M550.521 287.264V306.019C550.521 306.208 550.676 306.363 550.865 306.363C551.055 306.363 551.208 306.208 551.208 306.019V287.264C551.208 287.073 551.055 286.92 550.865 286.92C550.676 286.92 550.521 287.073 550.521 287.264Z" fill="#FFD786"/>
<path d="M53.5188 203.049V378.356L376.785 521.02L531.098 396.82L492.58 392.84L396.49 449.328V241.188L239.583 262.201V408.081C239.583 408.46 239.891 408.768 240.269 408.768C240.649 408.768 240.956 408.46 240.956 408.081V263.404L395.117 242.757V451.728L492.886 394.253L527.637 397.844L376.574 519.427L54.8921 377.46L55.0002 203C55.0002 202.621 54.5002 201.5 54.0001 201.5C53.5 201.5 53.5188 202.67 53.5188 203.049Z" fill="#FFD786"/>
<path d="M528.681 79.8321V269.56C528.681 269.939 528.988 270.247 529.368 270.247C529.747 270.247 530.055 269.939 530.055 269.56V79.8321C530.055 79.4534 529.747 79.1454 529.368 79.1454C528.988 79.1454 528.681 79.4534 528.681 79.8321Z" fill="#FFD786"/>
<path d="M210.524 176.191V300.993H220.98V413.669L240.263 408.791L297.263 424.347C297.628 424.447 298.005 424.232 298.105 423.865C298.205 423.5 297.989 423.123 297.624 423.023L240.276 407.371L222.353 411.907V299.62H211.896L211.897 176.191C211.897 175.812 211.589 175.504 211.211 175.504C210.831 175.504 210.524 175.812 210.524 176.191Z" fill="#FFD786"/>
<path d="M104.624 375.863L65.423 381.385V304.255L103.28 303.171L104.038 377.051L221.463 413.444C221.825 413.556 222.211 413.353 222.323 412.992C222.435 412.629 222.232 412.245 221.869 412.132L105.401 376.035L104.639 301.759L64.05 302.92V382.965L104.815 377.223C105.19 377.169 105.452 376.823 105.399 376.447C105.346 376.072 104.999 375.811 104.624 375.863Z" fill="#FFD786"/>
<path d="M53.5188 377.908V394.989L377.263 559.498V520.224C377.263 519.846 376.954 519.537 376.576 519.537C376.197 519.537 375.889 519.846 375.889 520.224V557.258L54.8921 394.147V377.908C54.8921 377.529 54.5844 377.221 54.2057 377.221C53.826 377.221 53.5188 377.529 53.5188 377.908Z" fill="#FFD786"/>
<path d="M394.321 561L601.5 366.204V186.841L546.957 89.5641L365.983 154.5V215.851L228.452 177.592L71.2387 236.696C70.8835 236.829 70.7039 237.225 70.8373 237.58C70.9711 237.936 71.3669 238.115 71.7221 237.981L228.516 179.035L367.356 217.657V155.467L546.328 91.2494L600.127 187.2V365.611L393.38 560C393.104 560.26 393.091 560.695 393.351 560.971C393.611 561.247 394.045 561.26 394.321 561Z" fill="#FFD786"/>
<path d="M348.708 214.632V248.148C348.708 248.527 349.016 248.835 349.395 248.835C349.775 248.835 350.081 248.527 350.081 248.148V214.632C350.081 214.252 349.775 213.945 349.395 213.945C349.016 213.945 348.708 214.252 348.708 214.632Z" fill="#FFD786"/>
<path d="M530.055 397.333V269.56C530.055 269.18 529.747 268.873 529.368 268.873C528.988 268.873 528.681 269.18 528.681 269.56V397.333C528.681 397.712 528.988 398.019 529.368 398.019C529.747 398.019 530.055 397.712 530.055 397.333Z" fill="#FFD786"/>
<path d="M395.665 242.645L491.499 262.439L492.047 393.549C492.048 393.929 492.357 394.235 492.736 394.233C493.116 394.232 493.421 393.924 493.42 393.544L492.867 261.32L395.943 241.301C395.571 241.224 395.208 241.463 395.132 241.835C395.055 242.205 395.293 242.569 395.665 242.645Z" fill="#FFD786"/>
<path d="M241.522 205.797H241.178V242.256L338.792 261.355V230.452L241.178 205.355V205.797H241.522L241.437 206.129L338.105 230.985V260.521L241.865 241.691V205.797H241.522Z" fill="#FFD786"/>
<path d="M338.364 230.385L330.287 232.425L330.685 259.492C330.688 259.681 330.844 259.832 331.035 259.829C331.224 259.827 331.376 259.671 331.372 259.481L330.98 232.957L338.532 231.052C338.716 231.005 338.828 230.819 338.781 230.635C338.735 230.451 338.548 230.34 338.364 230.385Z" fill="#FFD786"/>
<path d="M330.716 232.359L241.605 210.195C241.421 210.149 241.234 210.261 241.189 210.445C241.144 210.629 241.256 210.816 241.44 210.861L330.55 233.024C330.734 233.071 330.92 232.959 330.966 232.775C331.012 232.591 330.9 232.404 330.716 232.359Z" fill="#FFD786"/>
<path d="M328.297 258.884V234.104L241.605 212.773C241.42 212.728 241.235 212.84 241.189 213.024C241.144 213.208 241.256 213.395 241.441 213.44L327.611 234.643V258.884C327.611 259.073 327.764 259.228 327.953 259.228C328.143 259.228 328.297 259.073 328.297 258.884Z" fill="#FFD786"/>
<path d="M327.953 234.029H325.474V258.467C325.474 258.656 325.628 258.809 325.818 258.809C326.008 258.809 326.161 258.656 326.161 258.467V234.716H327.953C328.142 234.716 328.297 234.563 328.297 234.373C328.297 234.184 328.142 234.029 327.953 234.029Z" fill="#FFD786"/>
<path d="M307.474 229.419V254.944C307.474 255.135 307.628 255.288 307.818 255.288C308.008 255.288 308.161 255.135 308.161 254.944V229.419C308.161 229.229 308.008 229.075 307.818 229.075C307.628 229.075 307.474 229.229 307.474 229.419Z" fill="#FFD786"/>
<path d="M304.47 228.679V254.123C304.47 254.312 304.624 254.465 304.813 254.465C305.002 254.465 305.157 254.312 305.157 254.123V228.679C305.157 228.489 305.002 228.336 304.813 228.336C304.624 228.336 304.47 228.489 304.47 228.679Z" fill="#FFD786"/>
<path d="M302.403 228.679V254.04C302.403 254.229 302.556 254.384 302.747 254.384C302.936 254.384 303.089 254.229 303.089 254.04V228.679C303.089 228.489 302.936 228.336 302.747 228.336C302.556 228.336 302.403 228.489 302.403 228.679Z" fill="#FFD786"/>
<path d="M274.18 221.609V248.431C274.18 248.62 274.333 248.773 274.524 248.773C274.713 248.773 274.867 248.62 274.867 248.431V221.609C274.867 221.42 274.713 221.267 274.524 221.267C274.333 221.267 274.18 221.42 274.18 221.609Z" fill="#FFD786"/>
<path d="M270.733 247.621V220.209C270.733 220.019 270.58 219.865 270.39 219.865C270.201 219.865 270.047 220.019 270.047 220.209V247.621C270.047 247.812 270.201 247.965 270.39 247.965C270.58 247.965 270.733 247.812 270.733 247.621Z" fill="#FFD786"/>
<path d="M267.619 219.611V247.045C267.619 247.235 267.772 247.389 267.963 247.389C268.152 247.389 268.305 247.235 268.305 247.045V219.611C268.305 219.421 268.152 219.268 267.963 219.268C267.772 219.268 267.619 219.421 267.619 219.611Z" fill="#FFD786"/>
<path d="M211.196 299.62L103.946 301.779C103.567 301.785 103.265 302.1 103.273 302.479C103.28 302.857 103.594 303.159 103.973 303.152L211.224 300.993C211.603 300.985 211.904 300.672 211.897 300.293C211.889 299.913 211.576 299.612 211.196 299.62Z" fill="#FFD786"/>
<path d="M182.404 212.656V270.539C182.404 270.729 182.558 270.883 182.748 270.883C182.937 270.883 183.09 270.729 183.09 270.539V212.656C183.09 212.465 182.937 212.312 182.748 212.312C182.558 212.312 182.404 212.465 182.404 212.656Z" fill="#FFD786"/>
<path d="M139.465 228.063V276.313C139.465 276.504 139.619 276.657 139.808 276.657C139.999 276.657 140.152 276.504 140.152 276.313V228.063C140.152 227.873 139.999 227.719 139.808 227.719C139.619 227.719 139.465 227.873 139.465 228.063Z" fill="#FFD786"/>
<path d="M113.398 237.416V279.82C113.398 280.009 113.552 280.163 113.741 280.163C113.931 280.163 114.084 280.009 114.084 279.82V237.416C114.084 237.227 113.931 237.073 113.741 237.073C113.552 237.073 113.398 237.227 113.398 237.416Z" fill="#FFD786"/>
<path d="M78.7755 249.839V285.543C78.7755 285.732 78.9292 285.887 79.1188 285.887C79.3083 285.887 79.4621 285.732 79.4621 285.543V249.839C79.4621 249.649 79.3083 249.495 79.1188 249.495C78.9292 249.495 78.7755 249.649 78.7755 249.839Z" fill="#FFD786"/>
<path d="M79.0719 250.179L83.9318 250.848V283.783C83.9318 283.972 84.0855 284.125 84.275 284.125C84.4646 284.125 84.6188 283.972 84.6188 283.783L84.6183 250.249L79.1656 249.499C78.9776 249.472 78.8047 249.604 78.7787 249.792C78.7531 249.98 78.8844 250.153 79.0724 250.179" fill="#FFD786"/>
<path d="M84.3802 250.876L113.847 241.403C114.028 241.344 114.128 241.151 114.069 240.971C114.011 240.789 113.818 240.691 113.637 240.748L84.1697 250.221C83.9895 250.28 83.8901 250.473 83.9478 250.653C84.0062 250.835 84.1994 250.933 84.3802 250.876Z" fill="#FFD786"/>
<path d="M139.768 228.404L146.444 229.2V275.232C146.444 275.421 146.597 275.575 146.788 275.575C146.977 275.575 147.13 275.421 147.13 275.232V228.591L139.849 227.721C139.66 227.699 139.489 227.833 139.468 228.021C139.445 228.211 139.58 228.381 139.768 228.404Z" fill="#FFD786"/>
<path d="M146.898 229.22L182.86 216.847C183.039 216.784 183.134 216.589 183.072 216.409C183.01 216.231 182.816 216.135 182.636 216.197L146.676 228.571C146.496 228.632 146.401 228.828 146.463 229.007C146.524 229.187 146.72 229.281 146.898 229.22Z" fill="#FFD786"/>
<path d="M149.319 275.081V230.496L182.857 219.232C183.037 219.171 183.133 218.977 183.073 218.797C183.013 218.617 182.819 218.52 182.639 218.581L148.632 230.001V275.081C148.632 275.271 148.787 275.424 148.976 275.424C149.165 275.424 149.319 275.271 149.319 275.081Z" fill="#FFD786"/>
<path d="M167.839 223.799V272.499C167.839 272.688 167.992 272.841 168.181 272.841C168.37 272.841 168.525 272.688 168.525 272.499V223.799C168.525 223.608 168.37 223.455 168.181 223.455C167.992 223.455 167.839 223.608 167.839 223.799Z" fill="#FFD786"/>
<path d="M171.307 272.124V223.404L172.609 224.016V271.856C172.609 272.045 172.763 272.2 172.952 272.2C173.143 272.2 173.296 272.045 173.296 271.856V223.58L170.62 222.324V272.124C170.62 272.313 170.773 272.467 170.963 272.467C171.152 272.467 171.307 272.313 171.307 272.124Z" fill="#FFD786"/>
<path d="M148.844 230.565L150.181 231.121V274.872C150.181 275.063 150.336 275.216 150.525 275.216C150.715 275.216 150.869 275.063 150.869 274.872L150.868 230.663L149.108 229.932C148.932 229.859 148.732 229.941 148.659 230.117C148.587 230.292 148.669 230.493 148.844 230.565Z" fill="#FFD786"/>
<path d="M150.631 231.22L168.287 225.548C168.467 225.491 168.567 225.297 168.508 225.116C168.451 224.936 168.257 224.836 168.076 224.895L150.42 230.565C150.24 230.624 150.14 230.817 150.199 230.997C150.256 231.179 150.449 231.277 150.631 231.22Z" fill="#FFD786"/>
<path d="M173.062 224.123L182.858 220.777C183.038 220.716 183.134 220.521 183.073 220.341C183.012 220.163 182.816 220.067 182.637 220.128L172.841 223.473C172.661 223.535 172.566 223.729 172.628 223.909C172.689 224.088 172.884 224.184 173.062 224.123Z" fill="#FFD786"/>
<path d="M86.439 283.537V251.9L113.84 243.724C114.021 243.669 114.124 243.479 114.07 243.297C114.016 243.115 113.825 243.012 113.643 243.067L85.7521 251.388V283.537C85.7521 283.728 85.9057 283.881 86.0953 283.881C86.2849 283.881 86.439 283.728 86.439 283.537Z" fill="#FFD786"/>
<path d="M99.575 247.52V281.679C99.575 281.868 99.7287 282.021 99.9183 282.021C100.108 282.021 100.261 281.868 100.261 281.679V247.52C100.261 247.331 100.108 247.177 99.9183 247.177C99.7287 247.177 99.575 247.331 99.575 247.52Z" fill="#FFD786"/>
<path d="M102.099 281.432V247.483L102.749 247.751V281.252C102.749 281.441 102.903 281.596 103.093 281.596C103.282 281.596 103.436 281.441 103.436 281.252L103.436 247.289L101.412 246.46V281.432C101.412 281.621 101.566 281.775 101.756 281.775C101.945 281.775 102.099 281.621 102.099 281.432Z" fill="#FFD786"/>
<path d="M85.9782 251.967L86.9927 252.336V283.371C86.9927 283.561 87.1464 283.715 87.3364 283.715C87.526 283.715 87.6798 283.561 87.6798 283.371V251.855L86.2126 251.321C86.0344 251.257 85.8375 251.349 85.773 251.528C85.7079 251.705 85.8 251.903 85.9782 251.967Z" fill="#FFD786"/>
<path d="M87.4323 252.425L100.015 248.751C100.196 248.699 100.301 248.508 100.248 248.325C100.195 248.144 100.004 248.039 99.8219 248.092L87.2401 251.767C87.0579 251.819 86.9536 252.009 87.0068 252.192C87.0599 252.373 87.2505 252.479 87.4323 252.425Z" fill="#FFD786"/>
<path d="M103.191 247.849L113.839 244.691C114.021 244.637 114.124 244.447 114.07 244.264C114.017 244.083 113.825 243.979 113.644 244.033L102.995 247.191C102.814 247.245 102.71 247.436 102.764 247.617C102.818 247.8 103.008 247.903 103.191 247.849Z" fill="#FFD786"/>
<path d="M59.1432 188.875V447.632L59.2464 447.735L59.3495 447.632V188.875L59.2464 188.771L59.1432 188.875Z" fill="#FFD786"/>
<path d="M210.743 140.48V526.441L210.847 526.544L210.949 526.441V140.48L210.847 140.377L210.743 140.48Z" fill="#FFD786"/>
<path d="M221.564 144.745V537.655L221.667 537.758L221.769 537.655V144.745L221.667 144.641L221.564 144.745Z" fill="#FFD786"/>
<path d="M348.837 136.615V574.704L348.941 574.807L349.044 574.704V136.615L348.941 136.512L348.837 136.615Z" fill="#FFD786"/>
<path d="M529.265 59.4935V455.016L529.368 455.119L529.471 455.016V59.4935L529.368 59.3908L529.265 59.4935Z" fill="#FFD786"/>
<path d="M282.599 109.881V438.836L282.701 438.94L282.804 438.836V109.881L282.701 109.777L282.599 109.881Z" fill="#FFD786"/>
<path d="M583.435 147.887V402.981L583.538 403.084L583.641 402.981V147.887L583.538 147.784L583.435 147.887Z" fill="#FFD786"/>
<path d="M396.076 211.263V466.357L396.179 466.46L396.281 466.357V211.263L396.179 211.16L396.076 211.263Z" fill="#FFD786"/>
<path d="M593.228 178.132L501.844 19.1361L501.702 19.0988L501.665 19.2388L593.049 178.235L593.189 178.272L593.228 178.132Z" fill="#FFD786"/>
<path d="M477.849 122.109V258.669C477.849 258.859 478.004 259.012 478.193 259.012C478.383 259.012 478.536 258.859 478.536 258.669V122.109C478.536 121.919 478.383 121.765 478.193 121.765C478.004 121.765 477.849 121.919 477.849 122.109Z" fill="#FFD786"/>
<path d="M114.692 309.961V310.305H210.503V370.676L115.035 357.353V309.961H114.692H114.348V357.951L211.189 371.465V309.619H114.348V309.961H114.692Z" fill="#FFD786"/>
<path d="M120.441 309.961V356.397L114.639 357.312C114.451 357.341 114.323 357.517 114.353 357.705C114.382 357.892 114.558 358.02 114.745 357.991L121.128 356.984V309.961C121.128 309.772 120.975 309.619 120.785 309.619C120.596 309.619 120.441 309.772 120.441 309.961Z" fill="#FFD786"/>
<path d="M120.74 357.031L210.801 368.889C210.989 368.913 211.161 368.781 211.187 368.593C211.212 368.405 211.079 368.233 210.891 368.208L120.829 356.351C120.641 356.325 120.469 356.457 120.444 356.645C120.42 356.833 120.552 357.007 120.74 357.031Z" fill="#FFD786"/>
<path d="M123.369 309.961V355.136L210.806 365.345C210.994 365.368 211.165 365.233 211.186 365.044C211.209 364.856 211.074 364.685 210.886 364.664L124.054 354.524L124.056 309.961C124.056 309.772 123.901 309.619 123.712 309.619C123.522 309.619 123.369 309.772 123.369 309.961Z" fill="#FFD786"/>
<path d="M162.427 309.961V359.391C162.427 359.58 162.58 359.733 162.769 359.733C162.959 359.733 163.113 359.58 163.113 359.391V309.961C163.113 309.772 162.959 309.619 162.769 309.619C162.58 309.619 162.427 309.772 162.427 309.961Z" fill="#FFD786"/>
<path d="M170.33 359.917V309.961C170.33 309.772 170.177 309.619 169.988 309.619C169.797 309.619 169.644 309.772 169.644 309.961V359.917C169.644 360.107 169.797 360.26 169.988 360.26C170.177 360.26 170.33 360.107 170.33 359.917Z" fill="#FFD786"/>
<path d="M166.936 309.961V359.917C166.936 360.107 167.089 360.26 167.278 360.26C167.469 360.26 167.622 360.107 167.622 359.917V309.961C167.622 309.772 167.469 309.619 167.278 309.619C167.089 309.619 166.936 309.772 166.936 309.961Z" fill="#FFD786"/>
<path d="M123.712 355.173H126.25V309.961C126.25 309.772 126.096 309.619 125.906 309.619C125.717 309.619 125.564 309.772 125.564 309.961V354.487H123.712C123.522 354.487 123.369 354.64 123.369 354.831C123.369 355.02 123.522 355.173 123.712 355.173Z" fill="#FFD786"/>
</svg>
