<svg width="1094" height="271" viewBox="0 0 1094 271" fill="none" xmlns="http://www.w3.org/2000/svg">
<path d="M0 269.556H47.064V204.645H51.8019V127.732H56.2241V84.4583H61.2779V44.6593H92.2327V84.3004H97.2866V127.89H101.551V204.645H106.447V242.075H126.82V186.009L139.455 188.536V173.374H146.404V159.95L197.416 153.949C197.416 158.634 197.416 167.973 197.416 167.847C197.416 167.72 202.259 167.162 204.681 166.899V198.012L214.473 200.539V92.1971L220.474 91.2495V78.4569L259.957 70.2444V84.9321H265.485V177.481H331.185L335.607 192.8H342.556V243.181H357.402V153.791H361.982V133.891H431.472V153.791H436.21V166.583L484.064 166.899V180.324H487.696V260.237H510.439V148.737H506.016V142.893H509.807L519.599 126.626H597.144L605.988 142.262H611.042V148.737H606.462V206.54H633.942V87.1432L641.207 79.5624H654.315L678.005 86.0377V108.148L690.798 115.255V201.013L713.698 190.273L786.979 203.698V182.219H802.456V207.172H806.562V257.553H826.304V41.9744L852.363 2.80713L874.789 41.8165V93.3026L885.055 115.097V190.747L892.636 188.852L910.324 198.96V221.07L923.591 224.703V128.837L930.382 127.258V112.886L974.603 103.884V120.783L981.078 119.993V247.919H993.555V173.374H997.345V166.268H1000.98V158.845H1044.57V165.636H1047.73V173.217H1051.2V269.398H1094" stroke="#FFD786" stroke-width="2"/>
</svg>
