<svg width="1011" height="390" viewBox="0 0 1011 390" fill="none" xmlns="http://www.w3.org/2000/svg">
<path d="M32 390V301H3L73 234V164H103V178V197L161 149L264 234C272 225.667 288.6 209 291 209C291.667 191.667 292.2 156.6 289 155C285.8 153.4 313.667 154.333 328 155C324.8 164.6 324 178.333 324 184L370 145C403 176.667 469 239.8 469 239C469 238.2 472.333 220.667 474 212H512V106H481L631 2L778 104L750 106V208L835 156L894 199C896 189 893 175 892 175C891.2 175 916.333 175 929 175L926 223L1008 286L985 288V389" stroke="#FFD786" stroke-width="2"/>
</svg>
