<svg width="241" height="161" viewBox="0 0 241 161" fill="none" xmlns="http://www.w3.org/2000/svg">
<path d="M144.508 71.8222C144.429 71.8478 144.379 71.9157 144.358 72.0259C144.348 72.0796 144.321 72.1206 144.278 72.1488L142.752 73.1746L134.442 73.3974C134.033 73.4076 133.77 73.2155 133.655 72.8211C133.606 72.6495 133.6 72.4677 133.636 72.2756C133.665 72.1246 133.744 71.9878 133.862 71.8874C133.979 71.787 134.126 71.7289 134.281 71.7223C137.293 71.6045 140.062 71.552 142.587 71.5648C142.784 71.5674 142.883 71.4701 142.883 71.2729L142.871 68.4837C142.871 68.2941 142.777 68.1994 142.587 68.1994H130.285C130.132 68.1994 130.056 68.2749 130.059 68.426L130.17 81.0619L130.074 82.9329C130.067 83.0876 130.005 83.2347 129.898 83.348C129.792 83.4613 129.649 83.5334 129.494 83.5514C129.03 83.6052 128.723 83.4426 128.572 83.0635C128.384 82.591 128.468 82.0646 128.418 81.5613L128.284 54.3034C128.284 54.1753 128.219 54.1113 128.088 54.1113L112.916 54.1036C112.786 54.1036 112.719 54.1702 112.717 54.3034L112.448 93.9167C111.705 94.575 111.208 94.5506 110.957 93.8437C110.873 93.6081 110.839 93.2879 110.857 92.8833L110.965 68.3915C110.965 68.2839 110.91 68.2301 110.8 68.2301L98.4788 68.1802C98.4349 68.1796 98.3914 68.1879 98.3508 68.2046C98.3103 68.2213 98.2735 68.2459 98.2426 68.2771C98.2118 68.3083 98.1875 68.3454 98.1714 68.3862C98.1552 68.4269 98.1474 68.4706 98.1484 68.5144L98.2022 71.2613C98.2073 71.4509 98.3046 71.5469 98.4942 71.5495L106.547 71.6609C107.028 71.6686 107.321 71.908 107.426 72.3793C107.493 72.6738 107.315 72.9722 106.892 73.2745C106.768 73.3643 106.618 73.4115 106.466 73.4089L98.5057 73.2284C98.4726 73.2278 98.4397 73.234 98.409 73.2465C98.3782 73.2591 98.3502 73.2777 98.3266 73.3012C98.303 73.3248 98.2843 73.353 98.2715 73.384C98.2587 73.415 98.2521 73.4483 98.2521 73.4819V76.0329C98.2521 76.1151 98.2842 76.1941 98.3417 76.253C98.3991 76.3119 98.4773 76.3459 98.5595 76.3479L106.708 76.4786C107.231 76.4888 107.456 76.7526 107.384 77.27L107.361 77.4237C107.297 77.8821 107.033 78.1101 106.57 78.1075L98.4519 78.0537C98.4311 78.0532 98.4104 78.0569 98.391 78.0646C98.3717 78.0724 98.3541 78.084 98.3393 78.0987C98.3246 78.1134 98.313 78.131 98.3053 78.1503C98.2976 78.1697 98.2939 78.1904 98.2944 78.2112L98.3213 80.8698C98.3238 80.9876 98.3827 81.0465 98.498 81.0465L106.593 81.1387C107.128 81.1438 107.384 81.4153 107.361 81.9532L107.353 82.0953C107.333 82.5743 107.083 82.8125 106.604 82.8099L98.5249 82.7715C98.4988 82.771 98.473 82.7758 98.4488 82.7856C98.4245 82.7954 98.4025 82.8101 98.3839 82.8287C98.3653 82.8473 98.3505 82.8694 98.3404 82.8939C98.3303 82.9184 98.3251 82.9447 98.3251 82.9713L98.3328 85.5799C98.3328 85.6926 98.3892 85.7502 98.5018 85.7528L106.335 85.8604C106.891 85.868 107.233 86.1421 107.361 86.6825C107.382 86.767 107.379 86.8464 107.353 86.9207C107.286 87.1189 107.156 87.2902 106.982 87.4098C106.809 87.5293 106.601 87.5908 106.389 87.5854C103.843 87.5188 101.235 87.4675 98.5633 87.4317C98.4352 87.4291 98.3712 87.4919 98.3712 87.6199L98.3674 90.29C98.3669 90.3213 98.3725 90.3524 98.384 90.3815C98.3955 90.4106 98.4127 90.4371 98.4344 90.4596C98.4562 90.4821 98.4822 90.5 98.5109 90.5125C98.5396 90.5249 98.5704 90.5316 98.6017 90.5321L106.52 90.678C107.047 90.6857 107.323 90.9534 107.346 91.481C107.351 91.5758 107.324 91.6654 107.265 91.7499C107.017 92.1264 106.667 92.3121 106.216 92.307L98.4942 92.2225C98.4697 92.2225 98.4463 92.2326 98.429 92.2506C98.4117 92.2686 98.402 92.293 98.402 92.3185L98.4135 99.6219C98.4135 99.7628 98.4826 99.8178 98.6209 99.7871C99.1306 99.6744 99.6185 99.6769 100.085 99.7948C100.215 99.8281 100.281 99.7768 100.281 99.6411C100.283 98.4219 100.286 97.1452 100.288 95.8108C100.292 93.5364 103.227 93.5249 103.343 95.5303C103.435 97.0824 103.451 98.4348 103.393 99.5873C103.387 99.6667 103.425 99.7064 103.504 99.7064L105.709 99.7026C105.773 99.7026 105.805 99.6705 105.805 99.6065L105.809 95.6225C105.809 94.6621 106.288 94.1498 107.246 94.0858C107.348 94.0781 107.45 94.0819 107.549 94.0973C108.372 94.2279 108.795 94.7094 108.821 95.5418L108.879 97.3629L107.204 100.021C107.137 100.129 107.095 100.246 107.077 100.371C107.049 100.581 106.941 100.746 106.754 100.867C106.688 100.91 106.641 100.97 106.616 101.047C106.608 101.07 106.615 101.089 106.635 101.105C106.804 101.215 106.789 101.289 106.589 101.328C106.392 101.366 106.195 101.398 105.997 101.424L71.5205 101.477C71.7869 100.486 72.1877 99.8742 72.723 99.6411C73.266 99.8076 73.8448 99.8562 74.4595 99.7871C74.6158 99.7692 74.6939 99.6821 74.6939 99.5258L74.7208 95.7493C74.7259 95.0347 75.0832 94.6236 75.7927 94.5161C75.8874 94.5007 75.9809 94.5007 76.0731 94.5161C76.6852 94.6185 76.9913 94.9796 76.9913 95.5995L76.999 99.5566C76.999 99.7077 77.0758 99.7832 77.2295 99.7832L78.6433 99.764C78.82 99.7615 78.9097 99.6706 78.9122 99.4913L78.9545 95.7339C78.9622 94.9886 79.3374 94.5827 80.0802 94.5161C80.1929 94.5058 80.3043 94.5148 80.4144 94.543C80.9599 94.6838 81.2327 95.0373 81.2327 95.6033L81.2366 99.6065C81.2366 99.7192 81.2942 99.7756 81.4094 99.7756L83.8106 99.7794C83.9412 99.782 84.0078 99.7167 84.0104 99.5835L84.0219 89.6023L84.0603 88.0541C84.0654 87.9286 84.1115 87.8184 84.1986 87.7237C84.4906 87.4112 84.8543 87.1832 85.2897 87.0398C85.4178 86.9963 85.5023 87.0385 85.5433 87.1666C85.6047 87.3587 85.6278 87.5943 85.6124 87.8735L85.5548 99.5028C85.5548 99.6923 85.6508 99.7871 85.8429 99.7871L87.1338 99.7794C87.3464 99.7768 87.454 99.6693 87.4565 99.4567L87.4988 95.6264C87.509 94.8503 87.897 94.4034 88.6629 94.2855C88.8191 94.2625 88.9651 94.2779 89.1008 94.3317C89.6874 94.5545 89.9832 94.9796 89.9883 95.6071L90.0267 99.618C90.0267 99.7717 90.101 99.8306 90.2495 99.7948C90.6517 99.6923 91.0768 99.691 91.525 99.7909C91.6813 99.8268 91.7594 99.7653 91.7594 99.6065L91.7824 95.5726C91.785 94.753 92.1961 94.3137 93.0157 94.2548C93.1284 94.2471 93.2398 94.2663 93.3499 94.3124C93.9646 94.5763 94.272 95.0424 94.272 95.7109L94.2796 99.6834C94.2822 99.773 94.327 99.8114 94.4141 99.7986C95.0698 99.6859 95.8023 99.6744 96.6117 99.764C96.6344 99.7668 96.6575 99.7646 96.6793 99.7577C96.7012 99.7509 96.7213 99.7394 96.7384 99.7241C96.7555 99.7089 96.7691 99.6902 96.7784 99.6692C96.7877 99.6483 96.7924 99.6256 96.7922 99.6027L96.5694 75.5219C96.5668 75.399 96.5054 75.3363 96.385 75.3337L94.1029 75.3068C94.108 75.1147 94.2297 74.9815 94.4679 74.9072C94.5345 74.8868 94.5396 74.8547 94.4833 74.8112C94.4525 74.7881 94.4192 74.7766 94.3834 74.7766C94.2809 74.7715 94.231 74.719 94.2335 74.6191C94.2335 74.4706 94.3129 74.3707 94.4717 74.3194C94.861 74.1914 95.0288 73.9468 94.975 73.5856L96.3389 73.5626C96.4951 73.56 96.5732 73.4806 96.5732 73.3244L96.5924 67.4003C96.5934 67.19 96.6769 66.9884 96.8249 66.839C96.9729 66.6896 97.1736 66.6042 97.3839 66.6012L110.815 66.4244C110.863 66.4234 110.909 66.4036 110.943 66.3691C110.977 66.3346 110.996 66.2883 110.996 66.24C110.988 62.1011 111.02 57.82 111.092 53.3967C111.104 52.7103 111.474 52.3901 112.202 52.4362C112.993 52.4849 113.741 52.4657 114.446 52.3786C114.576 52.3633 114.645 52.2903 114.653 52.1596C114.841 49.2667 115.66 46.9078 118.975 46.5313C119.116 46.5155 119.248 46.4556 119.352 46.3603C119.456 46.265 119.528 46.1393 119.555 46.0011L120.354 42.0786C120.47 41.5151 120.585 41.5151 120.7 42.0786L121.511 46.0165C121.534 46.1302 121.594 46.2332 121.681 46.3095C121.769 46.3858 121.879 46.4314 121.995 46.4391C125.326 46.6658 126.309 49.2129 126.44 52.1596C126.447 52.3568 126.551 52.4503 126.751 52.4401C127.654 52.3901 128.745 52.198 129.605 52.5054C129.719 52.5446 129.817 52.6182 129.887 52.716C129.956 52.8138 129.994 52.9309 129.994 53.0509L130.028 66.2823C130.028 66.3302 130.047 66.3761 130.08 66.41C130.113 66.4438 130.158 66.4628 130.205 66.4628L143.767 66.5704C143.968 66.5724 144.16 66.6539 144.302 66.797C144.444 66.9402 144.523 67.1335 144.523 67.335L144.508 71.8222ZM116.601 52.4631L124.454 52.4247C124.484 52.4247 124.513 52.4187 124.541 52.4071C124.569 52.3955 124.594 52.3784 124.615 52.357C124.636 52.3355 124.653 52.3101 124.664 52.2821C124.675 52.2542 124.681 52.2243 124.68 52.1942L124.673 51.2683C124.668 50.429 124.364 49.6257 123.826 49.035C123.289 48.4442 122.562 48.1144 121.807 48.118L119.202 48.1334C118.827 48.1351 118.457 48.2189 118.112 48.3797C117.766 48.5405 117.453 48.7754 117.19 49.0708C116.927 49.3662 116.718 49.7164 116.577 50.1014C116.436 50.4864 116.364 50.8986 116.366 51.3144L116.374 52.2403C116.375 52.2998 116.399 52.3564 116.442 52.3981C116.484 52.4398 116.541 52.4631 116.601 52.4631Z" fill="#E3CA88"/>
<path d="M116.601 52.4631C116.541 52.4631 116.484 52.4397 116.442 52.3981C116.399 52.3564 116.375 52.2997 116.374 52.2403L116.366 51.3144C116.364 50.8985 116.436 50.4863 116.577 50.1013C116.718 49.7164 116.926 49.3662 117.19 49.0707C117.453 48.7753 117.766 48.5405 118.111 48.3796C118.457 48.2188 118.827 48.1351 119.202 48.1333L121.806 48.1179C122.562 48.1143 123.289 48.4442 123.826 49.0349C124.363 49.6257 124.668 50.429 124.672 51.2683L124.68 52.1942C124.681 52.2242 124.675 52.2541 124.664 52.2821C124.653 52.31 124.636 52.3355 124.615 52.3569C124.594 52.3784 124.569 52.3954 124.541 52.4071C124.513 52.4187 124.483 52.4247 124.453 52.4247L116.601 52.4631Z" fill="#1F1D1C"/>
<path d="M128.417 81.5612L128.583 99.3337C128.583 99.3831 128.574 99.4321 128.555 99.4778C128.536 99.5235 128.508 99.5649 128.473 99.5997C128.438 99.6345 128.396 99.6618 128.35 99.6801C128.305 99.6984 128.255 99.7073 128.206 99.7063L127.799 99.7025C127.693 99.7006 127.591 99.6586 127.516 99.585C127.44 99.5114 127.396 99.4118 127.392 99.3068C127.343 98.1158 127.325 96.88 127.338 95.5994C127.351 94.5646 126.852 94.0306 125.843 93.9973C125.72 93.9922 125.608 94.0088 125.505 94.0473C124.755 94.3188 124.371 94.7887 124.353 95.4572C124.319 96.8275 124.304 98.1555 124.307 99.4412C124.309 99.5795 124.243 99.6576 124.107 99.6756C123.369 99.7755 122.679 99.7358 122.036 99.5565C122.11 98.0838 122.089 96.5944 121.971 95.0884C121.93 94.5505 121.535 94.1868 120.787 93.9973C120.667 93.9666 120.547 93.9615 120.426 93.9819C119.527 94.1331 119.074 94.6645 119.066 95.5763L119.028 99.5219C119.028 99.6372 118.97 99.6961 118.855 99.6986L116.953 99.7063C116.902 99.7063 116.854 99.6865 116.817 99.6512C116.781 99.6159 116.761 99.568 116.761 99.5181L116.75 95.9336C116.75 95.1652 116.428 94.5685 115.785 94.1433C115.583 94.0101 115.385 93.9525 115.19 93.9704C114.196 94.0601 113.695 94.6287 113.688 95.6762C113.68 97.0644 113.676 98.3399 113.676 99.5027C113.676 99.6436 113.606 99.714 113.465 99.714L112.712 99.7063C112.517 99.7038 112.42 99.6051 112.42 99.4105L112.447 93.9166L112.716 54.3033C112.718 54.1701 112.785 54.1035 112.916 54.1035L128.087 54.1112C128.218 54.1112 128.283 54.1752 128.283 54.3033L128.417 81.5612ZM114.982 59.1884C115.174 59.1975 115.367 59.1662 115.549 59.0963C115.73 59.0264 115.897 58.9192 116.04 58.7809C116.183 58.6427 116.299 58.476 116.382 58.2904C116.464 58.1049 116.512 57.9041 116.521 57.6995C116.541 57.2862 116.405 56.8827 116.144 56.5775C115.883 56.2723 115.518 56.0906 115.129 56.0723C114.936 56.0632 114.744 56.0945 114.562 56.1644C114.381 56.2343 114.214 56.3415 114.071 56.4797C113.928 56.618 113.812 56.7847 113.729 56.9702C113.647 57.1558 113.599 57.3566 113.589 57.5612C113.57 57.9744 113.706 58.378 113.967 58.6832C114.228 58.9883 114.593 59.1701 114.982 59.1884ZM121.955 57.6649C121.955 57.2686 121.798 56.8884 121.518 56.6082C121.237 56.3279 120.857 56.1704 120.461 56.1704C120.065 56.1704 119.684 56.3279 119.404 56.6082C119.124 56.8884 118.966 57.2686 118.966 57.6649C118.966 58.0613 119.124 58.4414 119.404 58.7217C119.684 59.0019 120.065 59.1594 120.461 59.1594C120.857 59.1594 121.237 59.0019 121.518 58.7217C121.798 58.4414 121.955 58.0613 121.955 57.6649ZM127.415 57.6611C127.415 57.4638 127.376 57.2685 127.3 57.0862C127.225 56.904 127.114 56.7384 126.975 56.5989C126.835 56.4594 126.67 56.3487 126.487 56.2733C126.305 56.1978 126.11 56.1589 125.913 56.1589C125.514 56.1589 125.132 56.3172 124.85 56.5989C124.569 56.8806 124.41 57.2627 124.41 57.6611C124.41 58.0595 124.569 58.4416 124.85 58.7233C125.132 59.005 125.514 59.1632 125.913 59.1632C126.11 59.1632 126.305 59.1244 126.487 59.0489C126.67 58.9734 126.835 58.8628 126.975 58.7233C127.114 58.5838 127.225 58.4182 127.3 58.2359C127.376 58.0537 127.415 57.8583 127.415 57.6611ZM114.947 64.7745C115.144 64.7837 115.34 64.7525 115.526 64.6826C115.711 64.6126 115.881 64.5054 116.027 64.3669C116.173 64.2284 116.291 64.0614 116.375 63.8755C116.46 63.6895 116.508 63.4882 116.518 63.2831C116.527 63.078 116.498 62.8731 116.432 62.68C116.366 62.487 116.263 62.3096 116.131 62.158C115.999 62.0064 115.84 61.8836 115.662 61.7965C115.484 61.7095 115.291 61.6599 115.095 61.6506C114.898 61.6414 114.701 61.6726 114.516 61.7425C114.331 61.8125 114.16 61.9197 114.015 62.0582C113.869 62.1967 113.75 62.3637 113.666 62.5496C113.582 62.7356 113.534 62.9369 113.524 63.142C113.515 63.3471 113.544 63.552 113.61 63.7451C113.676 63.9381 113.778 64.1155 113.91 64.2671C114.043 64.4187 114.202 64.5415 114.38 64.6286C114.558 64.7156 114.751 64.7652 114.947 64.7745ZM122.002 63.2356C122.002 62.8341 121.842 62.4491 121.558 62.1653C121.274 61.8814 120.889 61.7219 120.488 61.7219C120.086 61.7219 119.701 61.8814 119.417 62.1653C119.134 62.4491 118.974 62.8341 118.974 63.2356C118.974 63.6371 119.134 64.0221 119.417 64.3059C119.701 64.5898 120.086 64.7493 120.488 64.7493C120.889 64.7493 121.274 64.5898 121.558 64.3059C121.842 64.0221 122.002 63.6371 122.002 63.2356ZM127.472 63.2433C127.472 62.8398 127.312 62.4528 127.027 62.1675C126.741 61.8822 126.354 61.7219 125.951 61.7219C125.547 61.7219 125.16 61.8822 124.875 62.1675C124.59 62.4528 124.43 62.8398 124.43 63.2433C124.43 63.6468 124.59 64.0337 124.875 64.3191C125.16 64.6044 125.547 64.7647 125.951 64.7647C126.354 64.7647 126.741 64.6044 127.027 64.3191C127.312 64.0337 127.472 63.6468 127.472 63.2433ZM114.766 70.3218C115.157 70.3928 115.561 70.2997 115.89 70.0628C116.218 69.826 116.444 69.4648 116.518 69.0588C116.555 68.8578 116.553 68.6518 116.512 68.4526C116.472 68.2534 116.394 68.0649 116.283 67.8979C116.172 67.7308 116.03 67.5885 115.865 67.4791C115.7 67.3697 115.516 67.2952 115.322 67.2601C114.931 67.189 114.527 67.2821 114.198 67.519C113.87 67.7559 113.643 68.117 113.57 68.523C113.533 68.7241 113.535 68.9301 113.575 69.1293C113.616 69.3285 113.694 69.517 113.805 69.684C113.916 69.851 114.058 69.9933 114.223 70.1027C114.388 70.2122 114.572 70.2866 114.766 70.3218ZM121.982 68.814C121.982 68.4074 121.821 68.0175 121.533 67.73C121.246 67.4426 120.856 67.2811 120.449 67.2811C120.043 67.2811 119.653 67.4426 119.365 67.73C119.078 68.0175 118.916 68.4074 118.916 68.814C118.916 69.2205 119.078 69.6104 119.365 69.8979C119.653 70.1854 120.043 70.3469 120.449 70.3469C120.856 70.3469 121.246 70.1854 121.533 69.8979C121.821 69.6104 121.982 69.2205 121.982 68.814ZM127.461 68.8293C127.461 68.4218 127.299 68.0309 127.011 67.7427C126.722 67.4545 126.332 67.2926 125.924 67.2926C125.516 67.2926 125.126 67.4545 124.837 67.7427C124.549 68.0309 124.387 68.4218 124.387 68.8293C124.387 69.2369 124.549 69.6278 124.837 69.916C125.126 70.2042 125.516 70.3661 125.924 70.3661C126.332 70.3661 126.722 70.2042 127.011 69.916C127.299 69.6278 127.461 69.2369 127.461 68.8293ZM115.197 75.9211C115.594 75.8809 115.957 75.6792 116.208 75.3604C116.459 75.0416 116.576 74.6319 116.535 74.2213C116.514 74.0181 116.455 73.8207 116.361 73.6405C116.266 73.4603 116.139 73.3008 115.986 73.1712C115.832 73.0415 115.656 72.9443 115.467 72.8849C115.277 72.8255 115.079 72.8052 114.883 72.8251C114.486 72.8654 114.123 73.0671 113.872 73.3859C113.621 73.7046 113.504 74.1144 113.546 74.5249C113.566 74.7282 113.625 74.9256 113.72 75.1058C113.814 75.286 113.941 75.4454 114.094 75.5751C114.248 75.7047 114.424 75.802 114.613 75.8614C114.803 75.9208 115.001 75.9411 115.197 75.9211ZM121.975 74.4077C121.975 74.0042 121.814 73.6173 121.529 73.3319C121.244 73.0466 120.857 72.8863 120.453 72.8863C120.05 72.8863 119.663 73.0466 119.377 73.3319C119.092 73.6173 118.932 74.0042 118.932 74.4077C118.932 74.8112 119.092 75.1982 119.377 75.4835C119.663 75.7688 120.05 75.9291 120.453 75.9291C120.857 75.9291 121.244 75.7688 121.529 75.4835C121.814 75.1982 121.975 74.8112 121.975 74.4077ZM127.468 74.4077C127.468 74.0042 127.308 73.6173 127.023 73.3319C126.738 73.0466 126.351 72.8863 125.947 72.8863C125.544 72.8863 125.157 73.0466 124.871 73.3319C124.586 73.6173 124.426 74.0042 124.426 74.4077C124.426 74.8112 124.586 75.1982 124.871 75.4835C125.157 75.7688 125.544 75.9291 125.947 75.9291C126.351 75.9291 126.738 75.7688 127.023 75.4835C127.308 75.1982 127.468 74.8112 127.468 74.4077ZM114.762 81.4771C114.955 81.5132 115.153 81.5093 115.345 81.4659C115.537 81.4225 115.719 81.3404 115.882 81.2242C116.044 81.108 116.184 80.96 116.292 80.7887C116.4 80.6173 116.475 80.426 116.513 80.2257C116.589 79.8211 116.507 79.4041 116.286 79.0666C116.064 78.7291 115.722 78.4986 115.333 78.4259C115.141 78.3899 114.943 78.3937 114.751 78.4371C114.559 78.4805 114.376 78.5626 114.214 78.6788C114.051 78.795 113.912 78.943 113.803 79.1143C113.695 79.2857 113.62 79.477 113.583 79.6773C113.507 80.0819 113.589 80.4989 113.81 80.8364C114.031 81.1739 114.374 81.4044 114.762 81.4771ZM121.986 79.9861C121.986 79.5826 121.826 79.1956 121.541 78.9103C121.255 78.625 120.868 78.4647 120.465 78.4647C120.061 78.4647 119.674 78.625 119.389 78.9103C119.104 79.1956 118.943 79.5826 118.943 79.9861C118.943 80.3896 119.104 80.7765 119.389 81.0619C119.674 81.3472 120.061 81.5075 120.465 81.5075C120.868 81.5075 121.255 81.3472 121.541 81.0619C121.826 80.7765 121.986 80.3896 121.986 79.9861ZM127.465 79.9707C127.465 79.5652 127.304 79.1763 127.017 78.8895C126.73 78.6028 126.341 78.4417 125.936 78.4417C125.53 78.4417 125.141 78.6028 124.854 78.8895C124.568 79.1763 124.407 79.5652 124.407 79.9707C124.407 80.1715 124.446 80.3703 124.523 80.5559C124.6 80.7414 124.712 80.9099 124.854 81.0519C124.996 81.1939 125.165 81.3065 125.35 81.3834C125.536 81.4602 125.735 81.4998 125.936 81.4998C126.136 81.4998 126.335 81.4602 126.521 81.3834C126.706 81.3065 126.875 81.1939 127.017 81.0519C127.159 80.9099 127.271 80.7414 127.348 80.5559C127.425 80.3703 127.465 80.1715 127.465 79.9707ZM114.857 87.0673C115.25 87.1141 115.646 86.9974 115.957 86.7429C116.269 86.4884 116.472 86.1169 116.52 85.7102C116.569 85.3035 116.459 84.8948 116.216 84.5741C115.973 84.2534 115.615 84.047 115.223 84.0002C114.83 83.9534 114.435 84.07 114.123 84.3245C113.811 84.579 113.608 84.9505 113.56 85.3572C113.511 85.7639 113.621 86.1726 113.864 86.4933C114.107 86.814 114.465 87.0205 114.857 87.0673ZM121.971 85.5606C121.971 85.1592 121.811 84.7741 121.527 84.4903C121.244 84.2064 120.859 84.0469 120.457 84.0469C120.056 84.0469 119.671 84.2064 119.387 84.4903C119.103 84.7741 118.943 85.1592 118.943 85.5606C118.943 85.9621 119.103 86.3471 119.387 86.6309C119.671 86.9148 120.056 87.0743 120.457 87.0743C120.859 87.0743 121.244 86.9148 121.527 86.6309C121.811 86.3471 121.971 85.9621 121.971 85.5606ZM124.906 86.6786C125.11 86.8663 125.361 86.9946 125.634 87.0494C125.906 87.1043 126.188 87.0837 126.45 86.9898C126.717 86.8936 126.952 86.7245 127.128 86.5016C127.304 86.2787 127.413 86.011 127.444 85.7289C127.476 85.4468 127.427 85.1616 127.304 84.9057C127.182 84.6498 126.99 84.4335 126.75 84.2813C126.562 84.1607 126.349 84.0833 126.127 84.0546C125.905 84.0259 125.679 84.0466 125.467 84.1153C125.254 84.1839 125.058 84.2988 124.895 84.4517C124.732 84.6046 124.604 84.7917 124.522 84.9997C124.409 85.2856 124.385 85.599 124.453 85.8987C124.522 86.1984 124.68 86.4703 124.906 86.6786ZM115.033 92.6372C115.419 92.6419 115.791 92.4841 116.068 92.1986C116.344 91.913 116.503 91.5231 116.508 91.1145C116.513 90.706 116.364 90.3123 116.094 90.02C115.825 89.7278 115.457 89.561 115.07 89.5563C114.684 89.5515 114.312 89.7093 114.035 89.9949C113.759 90.2804 113.601 90.6704 113.596 91.0789C113.591 91.4875 113.739 91.8812 114.009 92.1734C114.278 92.4656 114.647 92.6325 115.033 92.6372ZM121.975 91.1467C121.975 90.7442 121.815 90.3582 121.53 90.0736C121.246 89.789 120.86 89.6291 120.457 89.6291C120.055 89.6291 119.669 89.789 119.384 90.0736C119.099 90.3582 118.94 90.7442 118.94 91.1467C118.94 91.5491 119.099 91.9351 119.384 92.2197C119.669 92.5043 120.055 92.6642 120.457 92.6642C120.656 92.6642 120.854 92.6249 121.038 92.5487C121.222 92.4724 121.389 92.3606 121.53 92.2197C121.671 92.0788 121.783 91.9115 121.859 91.7274C121.935 91.5433 121.975 91.3459 121.975 91.1467ZM124.883 92.2454C125.154 92.5212 125.516 92.6805 125.896 92.6912C126.276 92.7019 126.646 92.5632 126.931 92.3031C127.092 92.1545 127.22 91.9717 127.307 91.7671C127.393 91.5626 127.435 91.3411 127.43 91.118C127.426 90.8949 127.374 90.6755 127.279 90.4749C127.184 90.2742 127.048 90.0971 126.881 89.9557C126.703 89.8054 126.495 89.699 126.272 89.6448C126.048 89.5906 125.816 89.5901 125.593 89.6432C125.37 89.6963 125.161 89.8016 124.984 89.9511C124.807 90.1005 124.666 90.2901 124.572 90.5051C124.445 90.7934 124.406 91.1151 124.462 91.4264C124.518 91.7377 124.665 92.0236 124.883 92.2454Z" fill="#1F1D1C"/>
<path d="M113.59 57.5612C113.55 58.4216 114.173 59.1502 114.983 59.1883C115.792 59.2265 116.482 58.5599 116.522 57.6994C116.563 56.8389 115.939 56.1104 115.13 56.0722C114.32 56.034 113.631 56.7007 113.59 57.5612Z" fill="#D5B771"/>
<path d="M120.461 59.1594C121.287 59.1594 121.956 58.4903 121.956 57.6649C121.956 56.8395 121.287 56.1704 120.461 56.1704C119.636 56.1704 118.967 56.8395 118.967 57.6649C118.967 58.4903 119.636 59.1594 120.461 59.1594Z" fill="#E3CA88"/>
<path d="M125.913 59.1633C126.743 59.1633 127.415 58.4907 127.415 57.6611C127.415 56.8315 126.743 56.1589 125.913 56.1589C125.084 56.1589 124.411 56.8315 124.411 57.6611C124.411 58.4907 125.084 59.1633 125.913 59.1633Z" fill="#E3CA88"/>
<path d="M113.525 63.1419C113.484 64.0045 114.121 64.7354 114.948 64.7744C115.774 64.8134 116.477 64.1457 116.518 63.2831C116.559 62.4205 115.922 61.6896 115.095 61.6506C114.269 61.6116 113.566 62.2793 113.525 63.1419Z" fill="#D5B771"/>
<path d="M120.488 64.7493C121.324 64.7493 122.002 64.0716 122.002 63.2356C122.002 62.3996 121.324 61.7219 120.488 61.7219C119.652 61.7219 118.975 62.3996 118.975 63.2356C118.975 64.0716 119.652 64.7493 120.488 64.7493Z" fill="#E3CA88"/>
<path d="M125.952 64.7647C126.792 64.7647 127.473 64.0835 127.473 63.2433C127.473 62.4031 126.792 61.7219 125.952 61.7219C125.112 61.7219 124.431 62.4031 124.431 63.2433C124.431 64.0835 125.112 64.7647 125.952 64.7647Z" fill="#E3CA88"/>
<path d="M113.57 68.5231C113.417 69.3686 113.952 70.174 114.766 70.3219C115.58 70.4699 116.365 69.9044 116.519 69.059C116.672 68.2135 116.137 67.4081 115.323 67.2602C114.509 67.1122 113.724 67.6777 113.57 68.5231Z" fill="#E3CA88"/>
<path d="M121.983 68.8142C121.983 69.2207 121.821 69.6106 121.534 69.8981C121.246 70.1855 120.856 70.347 120.45 70.347C120.043 70.347 119.653 70.1855 119.366 69.8981C119.078 69.6106 118.917 69.2207 118.917 68.8142C118.917 68.4076 119.078 68.0177 119.366 67.7302C119.653 67.4427 120.043 67.2812 120.45 67.2812C120.856 67.2812 121.246 67.4427 121.534 67.7302C121.821 68.0177 121.983 68.4076 121.983 68.8142ZM120.308 69.9091C121.207 69.7272 121.62 69.1945 121.549 68.3109C121.541 68.2289 121.503 68.1674 121.433 68.1265C121.195 67.9779 120.965 67.9907 120.742 68.1649C120.683 68.211 120.645 68.2699 120.627 68.3416C120.552 68.6387 120.359 68.8013 120.046 68.8295C119.936 68.8398 119.875 68.9 119.862 69.0101C119.857 69.0664 119.885 69.1087 119.947 69.1369C119.971 69.1485 119.992 69.1667 120.008 69.1894C120.023 69.2122 120.031 69.2386 120.032 69.2659C120.034 69.2932 120.027 69.3203 120.014 69.3443C120.001 69.3683 119.982 69.3882 119.958 69.402C119.725 69.5326 119.665 69.6875 119.778 69.8668C119.854 69.9872 119.961 70.0218 120.096 69.9705C120.166 69.9449 120.236 69.9244 120.308 69.9091Z" fill="#E3CA88"/>
<path d="M125.924 70.3662C126.773 70.3662 127.461 69.6782 127.461 68.8295C127.461 67.9807 126.773 67.2927 125.924 67.2927C125.076 67.2927 124.388 67.9807 124.388 68.8295C124.388 69.6782 125.076 70.3662 125.924 70.3662Z" fill="#E3CA88"/>
<path d="M120.308 69.9091C120.236 69.9245 120.166 69.945 120.097 69.9706C119.961 70.0218 119.855 69.9872 119.778 69.8669C119.665 69.6876 119.725 69.5326 119.958 69.402C119.982 69.3883 120.001 69.3683 120.014 69.3443C120.028 69.3204 120.034 69.2933 120.033 69.266C120.031 69.2387 120.023 69.2122 120.008 69.1895C119.993 69.1667 119.972 69.1485 119.947 69.1369C119.885 69.1087 119.857 69.0665 119.862 69.0101C119.875 68.9 119.937 68.8398 120.047 68.8296C120.359 68.8014 120.553 68.6387 120.627 68.3416C120.645 68.2699 120.683 68.211 120.742 68.1649C120.965 67.9908 121.195 67.9779 121.434 68.1265C121.503 68.1675 121.541 68.2289 121.549 68.3109C121.621 69.1945 121.207 69.7273 120.308 69.9091Z" fill="#C5A052"/>
<path d="M110.856 92.8833L110.822 99.522C110.822 99.645 110.759 99.7065 110.634 99.7065H109.062C108.942 99.7065 108.882 99.6475 108.882 99.5297L108.878 97.3629L108.82 95.5419C108.795 94.7095 108.371 94.228 107.549 94.0973C107.449 94.082 107.348 94.0781 107.245 94.0858C106.287 94.1498 105.808 94.6621 105.808 95.6226L105.804 99.6066C105.804 99.6706 105.772 99.7026 105.708 99.7026L103.503 99.7065C103.424 99.7065 103.387 99.6668 103.392 99.5874C103.451 98.4348 103.434 97.0825 103.342 95.5304C103.226 93.5249 100.291 93.5364 100.287 95.8108C100.285 97.1452 100.282 98.422 100.28 99.6411C100.28 99.7769 100.214 99.8281 100.084 99.7948C99.6177 99.677 99.1298 99.6744 98.6201 99.7871C98.4818 99.8179 98.4126 99.7628 98.4126 99.6219L98.4011 92.3186C98.4011 92.2931 98.4108 92.2687 98.4281 92.2507C98.4454 92.2326 98.4689 92.2225 98.4933 92.2225L106.215 92.307C106.666 92.3122 107.016 92.1265 107.264 91.75C107.323 91.6654 107.35 91.5758 107.345 91.481C107.322 90.9534 107.047 90.6858 106.519 90.6781L98.6009 90.5321C98.5696 90.5316 98.5387 90.5249 98.51 90.5125C98.4813 90.5001 98.4553 90.4821 98.4336 90.4596C98.4118 90.4372 98.3947 90.4106 98.3832 90.3815C98.3717 90.3524 98.366 90.3213 98.3665 90.2901L98.3704 87.62C98.3704 87.4919 98.4344 87.4292 98.5625 87.4317C101.234 87.4676 103.842 87.5188 106.388 87.5854C106.6 87.5909 106.808 87.5294 106.981 87.4098C107.155 87.2903 107.285 87.1189 107.353 86.9208C107.378 86.8465 107.381 86.7671 107.36 86.6826C107.232 86.1421 106.89 85.8681 106.335 85.8604L98.501 85.7528C98.3883 85.7503 98.332 85.6926 98.332 85.58L98.3243 82.9713C98.3243 82.9448 98.3295 82.9185 98.3396 82.894C98.3497 82.8695 98.3644 82.8473 98.383 82.8287C98.4016 82.8101 98.4237 82.7955 98.4479 82.7856C98.4721 82.7758 98.498 82.771 98.5241 82.7716L106.603 82.81C107.082 82.8125 107.332 82.5743 107.353 82.0954L107.36 81.9532C107.383 81.4154 107.127 81.1439 106.592 81.1388L98.4972 81.0466C98.3819 81.0466 98.323 80.9877 98.3204 80.8698L98.2935 78.2113C98.293 78.1904 98.2967 78.1697 98.3045 78.1504C98.3122 78.131 98.3238 78.1135 98.3385 78.0987C98.3532 78.084 98.3708 78.0724 98.3902 78.0647C98.4095 78.0569 98.4302 78.0532 98.4511 78.0538L106.569 78.1075C107.032 78.1101 107.296 77.8822 107.36 77.4237L107.383 77.27C107.455 76.7527 107.23 76.4888 106.707 76.4786L98.5586 76.348C98.4764 76.346 98.3982 76.3119 98.3408 76.253C98.2834 76.1942 98.2513 76.1152 98.2513 76.0329V73.482C98.2513 73.4483 98.2579 73.415 98.2707 73.384C98.2835 73.353 98.3022 73.3249 98.3258 73.3013C98.3494 73.2777 98.3774 73.2591 98.4081 73.2466C98.4388 73.2341 98.4717 73.2279 98.5048 73.2284L106.465 73.409C106.617 73.4116 106.767 73.3644 106.892 73.2745C107.314 72.9723 107.492 72.6739 107.426 72.3793C107.321 71.9081 107.027 71.6686 106.546 71.6609L98.4933 71.5495C98.3038 71.5469 98.2065 71.4509 98.2013 71.2614L98.1476 68.5144C98.1465 68.4706 98.1543 68.427 98.1705 68.3862C98.1867 68.3454 98.2109 68.3084 98.2418 68.2772C98.2726 68.246 98.3094 68.2213 98.35 68.2046C98.3906 68.188 98.4341 68.1797 98.4779 68.1802L110.799 68.2301C110.909 68.2301 110.964 68.2839 110.964 68.3915L110.856 92.8833Z" fill="#1F1D1C"/>
<path d="M142.752 73.1747L142.867 76.0676C142.869 76.1035 142.863 76.1394 142.851 76.1731C142.838 76.2069 142.819 76.2377 142.794 76.2639C142.769 76.29 142.74 76.3109 142.707 76.3254C142.674 76.3399 142.638 76.3476 142.602 76.348L134.262 76.4787C134.171 76.4803 134.081 76.5008 133.998 76.5389C133.916 76.5769 133.842 76.6317 133.782 76.6997C133.722 76.7677 133.677 76.8474 133.65 76.9337C133.623 77.02 133.614 77.111 133.624 77.2009L133.639 77.3315C133.701 77.8643 133.998 78.1268 134.531 78.1191L142.602 78.0077C142.628 78.0077 142.654 78.0127 142.677 78.0223C142.701 78.032 142.723 78.0461 142.741 78.064C142.759 78.0818 142.773 78.103 142.783 78.1263C142.793 78.1496 142.798 78.1746 142.798 78.1998L142.814 80.8123C142.816 80.9839 142.732 81.0709 142.56 81.0735L134.442 81.1427C133.861 81.1478 133.601 81.4385 133.662 82.0148L133.674 82.1377C133.725 82.591 133.979 82.8164 134.435 82.8139L142.671 82.7562C142.688 82.7563 142.704 82.7595 142.719 82.7657C142.735 82.7719 142.748 82.7811 142.76 82.7925C142.771 82.804 142.78 82.8176 142.786 82.8325C142.792 82.8473 142.795 82.8632 142.794 82.8792L142.779 85.6146C142.776 85.7273 142.719 85.7836 142.606 85.7836C139.942 85.7785 137.265 85.8118 134.573 85.8835C134.03 85.8963 133.721 86.1896 133.647 86.7633C133.639 86.812 133.644 86.8606 133.662 86.9093C133.749 87.1212 133.907 87.3014 134.114 87.4257C134.322 87.55 134.569 87.6124 134.823 87.6047C137.371 87.5278 139.919 87.4689 142.468 87.4279C142.502 87.4274 142.535 87.4336 142.567 87.4461C142.598 87.4585 142.627 87.4771 142.651 87.5006C142.675 87.5242 142.695 87.5522 142.708 87.5833C142.721 87.6143 142.729 87.6477 142.729 87.6815L142.748 90.2863C142.748 90.358 142.72 90.4268 142.669 90.4778C142.618 90.5289 142.548 90.558 142.476 90.559L134.615 90.6359C134.429 90.6382 134.249 90.7063 134.108 90.828C133.724 91.1609 133.582 91.4465 133.682 91.6847C133.76 91.874 133.892 92.0353 134.063 92.1477C134.234 92.2601 134.434 92.3184 134.638 92.3148C137.033 92.2866 139.639 92.2443 142.456 92.188C142.613 92.1854 142.691 92.2623 142.691 92.4185L142.668 99.5182C142.665 99.6386 142.604 99.6975 142.483 99.695L140.985 99.6719C140.836 99.6694 140.762 99.5925 140.762 99.4414V95.6649C140.762 94.5994 140.229 94.082 139.164 94.1128C139.033 94.1153 138.904 94.1358 138.776 94.1742C138.061 94.3945 137.703 94.8786 137.7 95.6265L137.692 99.3607C137.692 99.5784 137.582 99.6873 137.362 99.6873L135.522 99.6796C135.45 99.6786 135.381 99.6496 135.33 99.5986C135.279 99.5477 135.25 99.4789 135.249 99.4068L135.218 95.6649C135.211 94.7121 134.734 94.1806 133.789 94.0705C133.589 94.0474 133.401 94.082 133.224 94.1742C132.538 94.5251 132.195 95.0847 132.195 95.8531L132.202 99.4107C132.202 99.5925 132.113 99.6847 131.933 99.6873L130.497 99.7065C130.46 99.707 130.425 99.7003 130.391 99.6869C130.358 99.6734 130.327 99.6534 130.301 99.628C130.276 99.6026 130.255 99.5724 130.241 99.539C130.227 99.5057 130.22 99.4699 130.22 99.4337L130.17 81.062L130.059 68.4261C130.056 68.275 130.132 68.1995 130.285 68.1995H142.587C142.776 68.1995 142.871 68.2942 142.871 68.4838L142.883 71.2729C142.883 71.4702 142.784 71.5675 142.587 71.5649C140.062 71.5521 137.293 71.6046 134.281 71.7224C134.126 71.729 133.979 71.7871 133.861 71.8875C133.744 71.9879 133.665 72.1247 133.635 72.2757C133.6 72.4678 133.606 72.6496 133.655 72.8212C133.77 73.2156 134.032 73.4077 134.442 73.3975L142.752 73.1747Z" fill="#1F1D1C"/>
<path d="M144.507 71.8223L144.596 73.4166C144.604 73.5549 144.677 73.6241 144.815 73.6241C148.244 73.5908 151.696 73.5678 155.169 73.5549C155.666 73.5524 156.137 73.61 156.582 73.7278C156.722 73.7644 156.846 73.8456 156.934 73.959C157.023 74.0723 157.07 74.2112 157.07 74.3541L157.093 85.5684C157.093 85.6163 157.112 85.6622 157.146 85.6961C157.18 85.73 157.226 85.749 157.274 85.749L173.625 85.8796C173.796 85.8806 173.961 85.9487 174.083 86.0693C174.205 86.1899 174.275 86.3535 174.278 86.525L174.482 96.4217C174.461 96.0298 174.336 95.6955 174.105 95.4189C174.023 95.319 173.917 95.2704 173.786 95.2729C173.438 95.2781 173.245 95.4535 173.206 95.7993C173.191 95.9197 173.137 96.0183 173.045 96.0951C172.93 96.195 172.86 96.3371 172.837 96.5215L172.653 87.7237C172.651 87.6456 172.618 87.5713 172.562 87.5168C172.506 87.4622 172.431 87.4317 172.353 87.4317L157.285 87.4087C157.157 87.4087 157.093 87.4727 157.093 87.6008V99.522C157.093 99.5912 157.128 99.6258 157.197 99.6258L159.671 99.6373C159.743 99.6373 159.78 99.6002 159.783 99.5259L159.829 95.5995C159.834 95.013 160.122 94.6582 160.693 94.5353C160.796 94.5123 160.898 94.5071 161.001 94.5199C161.736 94.6045 162.104 95.0155 162.107 95.7532L162.115 99.4298C162.117 99.5476 162.177 99.6066 162.295 99.6066L163.84 99.6104C163.965 99.6104 164.027 99.5476 164.024 99.4221C163.998 98.1287 164.005 96.8455 164.043 95.5726C164.078 94.4354 165.572 94.1089 166.091 94.9464C166.245 95.1974 166.316 95.5662 166.306 96.0528C166.275 97.3181 166.36 98.5321 166.56 99.6949C165.382 100.013 164.664 100.541 164.408 101.282L121.476 101.37C121.78 101.088 121.967 100.484 122.036 99.5566C122.679 99.7359 123.37 99.7756 124.107 99.6757C124.243 99.6578 124.31 99.5797 124.307 99.4414C124.304 98.1556 124.32 96.8276 124.353 95.4573C124.371 94.7889 124.755 94.3189 125.506 94.0474C125.608 94.009 125.721 93.9923 125.844 93.9974C126.853 94.0307 127.351 94.5648 127.338 95.5995C127.325 96.8801 127.343 98.1159 127.392 99.3069C127.396 99.4119 127.44 99.5115 127.516 99.5851C127.592 99.6587 127.693 99.7007 127.799 99.7026L128.207 99.7064C128.256 99.7075 128.305 99.6986 128.351 99.6803C128.397 99.6619 128.439 99.6346 128.474 99.5998C128.509 99.5651 128.537 99.5236 128.555 99.4779C128.574 99.4322 128.584 99.3832 128.583 99.3338L128.418 81.5614C128.468 82.0646 128.383 82.591 128.571 83.0635C128.723 83.4426 129.03 83.6052 129.494 83.5514C129.648 83.5334 129.792 83.4614 129.898 83.3481C130.004 83.2348 130.066 83.0876 130.074 82.9329L130.17 81.0619L130.22 99.4337C130.22 99.4698 130.227 99.5056 130.241 99.5389C130.255 99.5723 130.275 99.6025 130.301 99.6279C130.327 99.6533 130.357 99.6733 130.391 99.6868C130.424 99.7003 130.46 99.707 130.496 99.7064L131.933 99.6872C132.112 99.6847 132.202 99.5925 132.202 99.4106L132.194 95.8531C132.194 95.0847 132.538 94.5251 133.224 94.1742C133.401 94.082 133.589 94.0474 133.789 94.0704C134.734 94.1806 135.21 94.712 135.218 95.6648L135.249 99.4068C135.25 99.4788 135.279 99.5476 135.33 99.5986C135.381 99.6495 135.449 99.6786 135.521 99.6795L137.362 99.6872C137.582 99.6872 137.692 99.5784 137.692 99.3607L137.7 95.6264C137.702 94.8785 138.061 94.3944 138.775 94.1742C138.904 94.1358 139.033 94.1153 139.163 94.1127C140.229 94.082 140.762 94.5993 140.762 95.6648V99.4414C140.762 99.5925 140.836 99.6693 140.985 99.6719L142.483 99.6949C142.603 99.6975 142.665 99.6386 142.667 99.5182L142.69 92.4184C142.69 92.2622 142.612 92.1854 142.456 92.1879C139.639 92.2443 137.033 92.2865 134.638 92.3147C134.434 92.3183 134.233 92.2601 134.063 92.1477C133.892 92.0353 133.759 91.8739 133.681 91.6847C133.581 91.4465 133.723 91.1609 134.108 90.8279C134.249 90.7062 134.429 90.6382 134.615 90.6358L142.475 90.559C142.548 90.558 142.617 90.5288 142.668 90.4777C142.719 90.4267 142.748 90.3579 142.748 90.2862L142.729 87.6814C142.728 87.6476 142.721 87.6143 142.708 87.5832C142.694 87.5522 142.675 87.5241 142.651 87.5005C142.626 87.477 142.598 87.4585 142.566 87.446C142.535 87.4335 142.501 87.4274 142.467 87.4279C139.919 87.4689 137.371 87.5278 134.822 87.6046C134.568 87.6124 134.321 87.5499 134.114 87.4256C133.906 87.3013 133.749 87.1211 133.662 86.9092C133.644 86.8606 133.639 86.8119 133.647 86.7632C133.721 86.1895 134.029 85.8963 134.572 85.8835C137.264 85.8117 139.942 85.7784 142.606 85.7836C142.718 85.7836 142.776 85.7272 142.779 85.6145L142.794 82.8791C142.795 82.8632 142.792 82.8473 142.786 82.8324C142.78 82.8175 142.771 82.8039 142.759 82.7925C142.748 82.781 142.734 82.7719 142.719 82.7656C142.704 82.7594 142.688 82.7562 142.671 82.7562L134.434 82.8138C133.978 82.8164 133.725 82.591 133.673 82.1376L133.662 82.0147C133.6 81.4384 133.86 81.1477 134.442 81.1426L142.56 81.0734C142.731 81.0709 142.816 80.9838 142.813 80.8122L142.798 78.1997C142.798 78.1745 142.793 78.1495 142.783 78.1262C142.773 78.1029 142.759 78.0818 142.74 78.0639C142.722 78.0461 142.701 78.0319 142.677 78.0223C142.653 78.0126 142.628 78.0077 142.602 78.0077L134.53 78.1191C133.997 78.1268 133.7 77.8642 133.639 77.3315L133.624 77.2009C133.613 77.111 133.622 77.02 133.649 76.9337C133.677 76.8474 133.722 76.7676 133.782 76.6996C133.842 76.6316 133.916 76.5769 133.998 76.5388C134.081 76.5007 134.17 76.4802 134.261 76.4786L142.602 76.348C142.638 76.3475 142.673 76.3398 142.706 76.3253C142.739 76.3109 142.769 76.29 142.794 76.2638C142.818 76.2376 142.838 76.2068 142.85 76.1731C142.863 76.1394 142.869 76.1035 142.867 76.0675L142.752 73.1746L144.277 72.1488C144.321 72.1207 144.347 72.0797 144.358 72.0259C144.378 71.9158 144.428 71.8479 144.507 71.8223ZM153.132 94.5584C153.288 94.6559 153.416 94.7914 153.505 94.952C153.593 95.1126 153.64 95.2931 153.64 95.4766L153.643 99.4759C153.643 99.5784 153.693 99.6296 153.793 99.6296L155.272 99.6334C155.357 99.636 155.399 99.5937 155.399 99.5067L155.384 75.472C155.384 75.3491 155.322 75.2876 155.199 75.2876L144.7 75.3107C144.649 75.3107 144.6 75.3309 144.564 75.3669C144.528 75.403 144.507 75.4518 144.507 75.5028L144.315 99.4875C144.315 99.512 144.32 99.5363 144.33 99.5589C144.339 99.5816 144.352 99.602 144.37 99.6192C144.387 99.6364 144.407 99.6499 144.43 99.6589C144.452 99.668 144.476 99.6724 144.5 99.6719L146.574 99.6565C146.7 99.6565 146.764 99.5938 146.767 99.4682L146.801 95.661C146.809 94.8388 147.222 94.3868 148.042 94.3048C148.232 94.2843 148.412 94.3368 148.584 94.4623C149.104 94.8414 149.364 95.3536 149.364 95.9991L149.352 99.4452C149.352 99.5681 149.414 99.6309 149.536 99.6334L150.823 99.6488C150.962 99.6488 151.031 99.5797 151.031 99.4414L151.069 95.6571C151.077 95.0014 151.391 94.5673 152.011 94.3547C152.356 94.2395 152.73 94.3074 153.132 94.5584Z" fill="#C5A052"/>
<path d="M113.546 74.5249C113.633 75.3799 114.373 76.005 115.198 75.9211C116.023 75.8373 116.622 75.0763 116.535 74.2213C116.448 73.3664 115.709 72.7413 114.883 72.8251C114.058 72.909 113.459 73.67 113.546 74.5249Z" fill="#E3CA88"/>
<path d="M120.454 75.9292C121.294 75.9292 121.975 75.2481 121.975 74.4079C121.975 73.5676 121.294 72.8865 120.454 72.8865C119.614 72.8865 118.933 73.5676 118.933 74.4079C118.933 75.2481 119.614 75.9292 120.454 75.9292Z" fill="#E3CA88"/>
<path d="M125.947 75.9292C126.787 75.9292 127.469 75.2481 127.469 74.4079C127.469 73.5676 126.787 72.8865 125.947 72.8865C125.107 72.8865 124.426 73.5676 124.426 74.4079C124.426 75.2481 125.107 75.9292 125.947 75.9292Z" fill="#E3CA88"/>
<path d="M94.9746 73.5857C95.0284 73.9468 94.8606 74.1914 94.4713 74.3195C94.3125 74.3707 94.2331 74.4706 94.2331 74.6192C94.2306 74.719 94.2805 74.7715 94.383 74.7767C94.4188 74.7767 94.4521 74.7882 94.4828 74.8112C94.5392 74.8548 94.5341 74.8868 94.4675 74.9073C94.2293 74.9816 94.1076 75.1147 94.1025 75.3068L85.8886 75.2262C85.7426 75.2262 85.6696 75.2979 85.6696 75.4413L85.612 87.8735C85.6274 87.5944 85.6043 87.3587 85.5429 87.1666C85.5019 87.0386 85.4174 86.9963 85.2893 87.0399C84.8539 87.1833 84.4902 87.4112 84.1982 87.7237C84.1111 87.8185 84.065 87.9286 84.0599 88.0541L84.0215 89.6024L84.0061 87.6161C84.0051 87.5655 83.9846 87.5172 83.9488 87.4814C83.9129 87.4456 83.8647 87.425 83.814 87.424L68.6387 87.3972C68.503 87.3972 68.4338 87.4637 68.4312 87.5969L68.2238 99.4951C68.2233 99.5343 68.2306 99.5732 68.2455 99.6095C68.2603 99.6459 68.2823 99.6789 68.3102 99.7068C68.3381 99.7347 68.3713 99.7568 68.4079 99.7719C68.4445 99.787 68.4838 99.7948 68.5234 99.7948H70.1754C70.3701 99.7948 70.4687 99.6988 70.4713 99.5067L70.5058 95.7225C70.511 95.0079 70.8683 94.607 71.5777 94.5199C71.716 94.502 71.8569 94.511 72.0003 94.5468C72.4972 94.6749 72.7444 94.9938 72.7418 95.5035L72.7226 99.6411C72.1873 99.8742 71.7865 100.486 71.5201 101.478L60.8705 101.458C60.371 101.458 60.0522 101.219 59.9139 100.74C59.8934 100.663 59.8921 100.588 59.91 100.513C60.015 100.078 60.2904 99.8588 60.736 99.8563L66.3144 99.8025C66.4373 99.8025 66.5001 99.741 66.5026 99.6181L66.8407 86.4597C66.8447 86.3201 66.9024 86.1873 67.0019 86.0893C67.1015 85.9912 67.235 85.9353 67.3747 85.9334L83.7718 85.7375C83.9126 85.7349 83.9831 85.6645 83.9831 85.5262L84.083 74.4693C84.0881 73.9443 84.3532 73.6792 84.8782 73.6741L94.9746 73.5857Z" fill="#D5B771"/>
<path d="M94.1028 75.3068L96.3849 75.3337C96.5052 75.3362 96.5667 75.399 96.5693 75.5219L96.7921 99.6026C96.7923 99.6255 96.7876 99.6482 96.7783 99.6692C96.769 99.6901 96.7554 99.7088 96.7383 99.7241C96.7212 99.7394 96.7011 99.7508 96.6792 99.7577C96.6574 99.7646 96.6343 99.7667 96.6115 99.764C95.8022 99.6744 95.0697 99.6859 94.414 99.7986C94.3269 99.8114 94.2821 99.773 94.2795 99.6833L94.2719 95.7108C94.2719 95.0424 93.9645 94.5762 93.3498 94.3124C93.2397 94.2663 93.1283 94.2471 93.0156 94.2548C92.196 94.3137 91.7849 94.7529 91.7823 95.5725L91.7593 99.6065C91.7593 99.7653 91.6812 99.8267 91.5249 99.7909C91.0767 99.691 90.6515 99.6923 90.2494 99.7947C90.1009 99.8306 90.0266 99.7717 90.0266 99.618L89.9882 95.6071C89.9831 94.9796 89.6872 94.5544 89.1007 94.3316C88.965 94.2778 88.819 94.2625 88.6628 94.2855C87.8969 94.4033 87.5089 94.8503 87.4987 95.6263L87.4564 99.4566C87.4538 99.6692 87.3463 99.7768 87.1337 99.7794L85.8428 99.787C85.6507 99.787 85.5547 99.6923 85.5547 99.5028L85.6123 87.8735L85.6699 75.4412C85.6699 75.2978 85.7429 75.2261 85.8889 75.2261L94.1028 75.3068ZM89.7171 77.1782C89.717 77.1519 89.7116 77.126 89.7014 77.1018C89.6912 77.0776 89.6763 77.0557 89.6577 77.0373C89.639 77.0189 89.6169 77.0043 89.5925 76.9944C89.5682 76.9846 89.5422 76.9796 89.516 76.9798L87.8179 76.9916C87.7649 76.992 87.7143 77.0134 87.6771 77.0511C87.6399 77.0889 87.6192 77.1398 87.6196 77.1928L87.6468 81.0883C87.647 81.1146 87.6523 81.1405 87.6625 81.1647C87.6727 81.1888 87.6876 81.2108 87.7063 81.2292C87.7249 81.2476 87.7471 81.2622 87.7714 81.272C87.7957 81.2819 87.8217 81.2869 87.8479 81.2867L89.546 81.2748C89.599 81.2745 89.6496 81.2531 89.6868 81.2153C89.724 81.1776 89.7447 81.1267 89.7443 81.0737L89.7171 77.1782ZM94.2052 77.163C94.2046 77.11 94.1831 77.0594 94.1452 77.0224C94.1074 76.9853 94.0563 76.9648 94.0033 76.9653L92.2977 76.9832C92.2714 76.9835 92.2455 76.9889 92.2214 76.9992C92.1972 77.0095 92.1754 77.0244 92.157 77.0432C92.1387 77.0619 92.1242 77.0841 92.1144 77.1084C92.1046 77.1328 92.0997 77.1588 92.1 77.185L92.141 81.0958C92.1415 81.1488 92.1631 81.1994 92.201 81.2364C92.2388 81.2735 92.2898 81.294 92.3428 81.2935L94.0485 81.2756C94.0747 81.2753 94.1006 81.2699 94.1248 81.2596C94.1489 81.2493 94.1708 81.2344 94.1891 81.2156C94.2075 81.1969 94.222 81.1747 94.2318 81.1504C94.2416 81.126 94.2465 81.1 94.2462 81.0738L94.2052 77.163ZM89.6954 82.7203C89.6951 82.6976 89.6904 82.6752 89.6814 82.6543C89.6725 82.6335 89.6595 82.6146 89.6433 82.5987C89.627 82.5829 89.6078 82.5703 89.5867 82.5619C89.5656 82.5535 89.5431 82.5493 89.5204 82.5496L87.761 82.5711C87.7151 82.5717 87.6714 82.5904 87.6393 82.6232C87.6073 82.656 87.5897 82.7002 87.5902 82.7461L87.6378 86.6414C87.6381 86.6641 87.6428 86.6865 87.6517 86.7074C87.6607 86.7283 87.6737 86.7472 87.6899 86.763C87.7062 86.7789 87.7254 86.7914 87.7465 86.7998C87.7675 86.8083 87.7901 86.8125 87.8128 86.8122L89.5722 86.7907C89.6181 86.7901 89.6618 86.7713 89.6938 86.7385C89.7259 86.7057 89.7435 86.6615 89.743 86.6157L89.6954 82.7203ZM94.1937 82.7145C94.1932 82.6676 94.1741 82.6229 94.1406 82.5901C94.1071 82.5573 94.062 82.5391 94.0151 82.5396L92.271 82.5579C92.2478 82.5581 92.2249 82.563 92.2035 82.5721C92.1822 82.5812 92.1628 82.5944 92.1466 82.611C92.1304 82.6276 92.1175 82.6472 92.1089 82.6687C92.1002 82.6902 92.0959 82.7133 92.0961 82.7365L92.1371 86.6473C92.1376 86.6941 92.1567 86.7389 92.1902 86.7717C92.2237 86.8045 92.2688 86.8226 92.3157 86.8221L94.0598 86.8038C94.083 86.8036 94.1059 86.7988 94.1273 86.7897C94.1486 86.7806 94.168 86.7674 94.1842 86.7508C94.2005 86.7342 94.2133 86.7146 94.2219 86.693C94.2306 86.6715 94.2349 86.6485 94.2347 86.6253L94.1937 82.7145ZM87.6677 90.532L87.6792 92.015C87.6818 92.1866 87.7676 92.2762 87.9366 92.2839L89.4887 92.3531C89.5252 92.3547 89.5615 92.3487 89.5956 92.3356C89.6296 92.3225 89.6606 92.3026 89.6865 92.277C89.7125 92.2514 89.7329 92.2207 89.7464 92.1869C89.76 92.153 89.7665 92.1167 89.7654 92.0803L89.6732 88.8685C89.9959 88.0182 89.3965 87.7595 87.8752 88.0924C87.742 88.1206 87.6754 88.2026 87.6754 88.3383L87.6677 90.532ZM94.2165 88.2772C94.2162 88.2394 94.2085 88.2019 94.1938 88.1671C94.179 88.1322 94.1576 88.1006 94.1306 88.074C94.1037 88.0475 94.0718 88.0265 94.0367 88.0122C94.0017 87.998 93.9642 87.9908 93.9263 87.9911L92.3819 88.0019C92.3441 88.0021 92.3067 88.0098 92.2718 88.0245C92.237 88.0393 92.2053 88.0607 92.1788 88.0877C92.1522 88.1146 92.1312 88.1465 92.117 88.1816C92.1027 88.2166 92.0955 88.2541 92.0958 88.292L92.122 92.0492C92.1223 92.087 92.13 92.1245 92.1447 92.1593C92.1595 92.1942 92.1809 92.2258 92.2078 92.2524C92.2348 92.2789 92.2667 92.2999 92.3017 92.3142C92.3368 92.3284 92.3743 92.3356 92.4122 92.3353L93.9566 92.3246C93.9944 92.3243 94.0318 92.3166 94.0667 92.3019C94.1015 92.2871 94.1331 92.2657 94.1597 92.2387C94.1863 92.2118 94.2073 92.1799 94.2215 92.1448C94.2358 92.1098 94.243 92.0723 94.2427 92.0344L94.2165 88.2772Z" fill="#1F1D1C"/>
<path d="M153.132 94.5583C152.73 94.3073 152.356 94.2395 152.011 94.3547C151.391 94.5673 151.077 95.0014 151.069 95.6571L151.031 99.4413C151.031 99.5796 150.962 99.6488 150.824 99.6488L149.537 99.6334C149.414 99.6309 149.352 99.5681 149.352 99.4452L149.364 95.999C149.364 95.3536 149.104 94.8414 148.584 94.4623C148.412 94.3368 148.232 94.2843 148.042 94.3048C147.222 94.3867 146.809 94.8388 146.801 95.6609L146.767 99.4682C146.764 99.5937 146.7 99.6565 146.574 99.6565L144.5 99.6718C144.476 99.6724 144.452 99.668 144.43 99.6589C144.407 99.6499 144.387 99.6364 144.37 99.6192C144.353 99.602 144.339 99.5815 144.33 99.5589C144.32 99.5363 144.315 99.512 144.315 99.4874L144.508 75.5027C144.508 75.4518 144.528 75.4029 144.564 75.3669C144.6 75.3309 144.649 75.3106 144.7 75.3106L155.199 75.2876C155.322 75.2876 155.384 75.3491 155.384 75.472L155.399 99.5066C155.399 99.5937 155.357 99.636 155.272 99.6334L153.793 99.6296C153.693 99.6296 153.643 99.5784 153.643 99.4759L153.64 95.4765C153.64 95.2931 153.593 95.1126 153.505 94.952C153.416 94.7914 153.288 94.6559 153.132 94.5583ZM146.866 79.9977L146.828 80.9005C146.818 81.1311 146.928 81.2476 147.158 81.2502L148.757 81.2732C148.795 81.2742 148.832 81.2676 148.868 81.2538C148.903 81.24 148.935 81.2192 148.963 81.1927C148.99 81.1662 149.011 81.1345 149.026 81.0995C149.041 81.0645 149.049 81.0269 149.049 80.9889L149.029 77.1432C148.438 76.9255 147.791 76.9063 147.089 77.0856C147.033 77.1 146.984 77.1324 146.948 77.1776C146.913 77.2228 146.893 77.2783 146.893 77.3353L146.866 79.9977ZM153.417 77.1932C153.416 77.1546 153.408 77.1166 153.392 77.0814C153.377 77.0463 153.354 77.0147 153.325 76.9888C153.297 76.9628 153.263 76.943 153.227 76.9306C153.19 76.9182 153.152 76.9134 153.113 76.9165L151.6 77.0395C151.53 77.0452 151.465 77.0768 151.417 77.1279C151.37 77.1791 151.343 77.2462 151.342 77.3161L151.315 80.9697C151.315 81.0065 151.322 81.0431 151.335 81.0773C151.349 81.1115 151.369 81.1427 151.395 81.1691C151.42 81.1955 151.451 81.2166 151.485 81.2312C151.519 81.2457 151.555 81.2535 151.592 81.254L153.171 81.2886C153.209 81.2896 153.246 81.283 153.281 81.2691C153.317 81.2553 153.349 81.2344 153.376 81.2079C153.403 81.1813 153.424 81.1496 153.438 81.1146C153.452 81.0796 153.46 81.0421 153.459 81.0043L153.417 77.1932ZM146.855 85.3533L146.843 86.3252C146.841 86.5814 146.966 86.7184 147.22 86.7363L148.645 86.8401C148.696 86.8438 148.748 86.8369 148.796 86.8198C148.844 86.8027 148.889 86.7759 148.926 86.7409C148.964 86.7059 148.994 86.6636 149.014 86.6165C149.034 86.5694 149.045 86.5187 149.045 86.4674L149.064 82.8484C148.634 82.5257 147.979 82.4437 147.101 82.6025C146.968 82.6281 146.9 82.7088 146.897 82.8445L146.855 85.3533ZM153.423 82.7509C153.423 82.7242 153.417 82.6977 153.407 82.6731C153.396 82.6485 153.381 82.6262 153.362 82.6074C153.343 82.5887 153.32 82.5739 153.296 82.5639C153.271 82.5539 153.244 82.5488 153.218 82.549L151.52 82.5639C151.466 82.5644 151.414 82.5863 151.376 82.6248C151.338 82.6633 151.317 82.7153 151.318 82.7693L151.351 86.6186C151.352 86.6454 151.357 86.6718 151.367 86.6964C151.378 86.7211 151.393 86.7434 151.412 86.7621C151.431 86.7809 151.454 86.7957 151.479 86.8057C151.503 86.8157 151.53 86.8207 151.557 86.8205L153.255 86.8057C153.309 86.8052 153.36 86.7833 153.398 86.7448C153.436 86.7063 153.457 86.6543 153.457 86.6003L153.423 82.7509ZM149.007 88.2059C149.007 88.1811 149.002 88.1567 148.992 88.1338C148.983 88.111 148.969 88.0903 148.951 88.0728C148.934 88.0554 148.913 88.0415 148.89 88.0321C148.867 88.0227 148.843 88.0179 148.818 88.0179L147.02 88.0211C146.97 88.0212 146.922 88.0411 146.887 88.0764C146.852 88.1118 146.832 88.1597 146.832 88.2096L146.839 92.136C146.839 92.1607 146.844 92.1852 146.854 92.208C146.863 92.2309 146.877 92.2516 146.894 92.269C146.912 92.2865 146.933 92.3003 146.956 92.3098C146.978 92.3192 147.003 92.324 147.028 92.3239L148.826 92.3208C148.876 92.3207 148.923 92.3008 148.959 92.2654C148.994 92.2301 149.014 92.1822 149.014 92.1322L149.007 88.2059ZM153.433 88.2789C153.433 88.2045 153.403 88.1333 153.35 88.0808C153.298 88.0283 153.226 87.9988 153.152 87.9989L151.615 88.0016C151.578 88.0017 151.542 88.009 151.508 88.0232C151.474 88.0373 151.443 88.058 151.417 88.0841C151.391 88.1102 151.37 88.1412 151.356 88.1752C151.342 88.2093 151.335 88.2458 151.335 88.2826L151.342 92.0553C151.342 92.1297 151.371 92.2009 151.424 92.2534C151.477 92.3059 151.548 92.3354 151.623 92.3352L153.159 92.3326C153.196 92.3325 153.233 92.3252 153.267 92.311C153.301 92.2969 153.331 92.2762 153.357 92.2501C153.383 92.224 153.404 92.193 153.418 92.159C153.432 92.1249 153.439 92.0884 153.439 92.0516L153.433 88.2789Z" fill="#1F1D1C"/>
<path d="M89.516 76.9797L87.8179 76.9915C87.7076 76.9923 87.6188 77.0824 87.6196 77.1927L87.6468 81.0882C87.6475 81.1986 87.7376 81.2874 87.8479 81.2866L89.546 81.2748C89.6563 81.274 89.7451 81.1839 89.7444 81.0736L89.7172 77.178C89.7164 77.0677 89.6263 76.9789 89.516 76.9797Z" fill="#C5A052"/>
<path d="M94.0031 76.9654L92.2974 76.9833C92.1871 76.9844 92.0986 77.0748 92.0997 77.1851L92.1407 81.0959C92.1419 81.2062 92.2322 81.2947 92.3426 81.2936L94.0483 81.2757C94.1586 81.2746 94.2471 81.1842 94.2459 81.0739L94.205 77.1631C94.2038 77.0527 94.1134 76.9642 94.0031 76.9654Z" fill="#C5A052"/>
<path d="M149.029 77.1432C148.73 77.8065 148.322 78.3354 147.807 78.7299C147.708 78.8067 147.629 78.9015 147.573 79.0142C147.378 79.4035 147.143 79.7313 146.866 79.9977L146.893 77.3353C146.893 77.2782 146.912 77.2228 146.948 77.1776C146.983 77.1324 147.033 77.1 147.089 77.0856C147.791 76.9063 148.438 76.9255 149.029 77.1432Z" fill="#E3CA88"/>
<path d="M153.417 77.1931L153.459 81.0042C153.46 81.042 153.453 81.0795 153.438 81.1145C153.424 81.1495 153.403 81.1812 153.376 81.2078C153.349 81.2343 153.317 81.2552 153.282 81.2691C153.246 81.2829 153.209 81.2895 153.171 81.2885L151.592 81.2539C151.555 81.2534 151.519 81.2457 151.485 81.2311C151.451 81.2166 151.421 81.1955 151.395 81.1691C151.369 81.1427 151.349 81.1115 151.335 81.0773C151.322 81.043 151.315 81.0065 151.315 80.9696L151.342 77.316C151.343 77.2461 151.37 77.179 151.417 77.1279C151.465 77.0767 151.53 77.0452 151.6 77.0394L153.113 76.9165C153.152 76.9133 153.19 76.9181 153.227 76.9305C153.263 76.9429 153.297 76.9627 153.325 76.9887C153.354 77.0147 153.377 77.0462 153.392 77.0814C153.408 77.1165 153.417 77.1546 153.417 77.1931Z" fill="#C5A052"/>
<path d="M149.029 77.1433L149.048 80.989C149.048 81.027 149.041 81.0646 149.026 81.0996C149.011 81.1346 148.99 81.1663 148.962 81.1928C148.935 81.2193 148.903 81.2401 148.868 81.2539C148.832 81.2677 148.794 81.2743 148.756 81.2733L147.158 81.2503C146.928 81.2477 146.818 81.1312 146.828 80.9006L146.866 79.9978C147.143 79.7314 147.378 79.4036 147.573 79.0143C147.629 78.9016 147.708 78.8068 147.807 78.73C148.322 78.3356 148.73 77.8067 149.029 77.1433Z" fill="#C5A052"/>
<path d="M113.583 79.6774C113.425 80.52 113.953 81.3258 114.763 81.4772C115.572 81.6287 116.356 81.0684 116.513 80.2258C116.671 79.3832 116.143 78.5774 115.334 78.426C114.524 78.2746 113.741 78.8348 113.583 79.6774Z" fill="#E3CA88"/>
<path d="M120.466 81.5076C121.306 81.5076 121.987 80.8264 121.987 79.9862C121.987 79.146 121.306 78.4648 120.466 78.4648C119.625 78.4648 118.944 79.146 118.944 79.9862C118.944 80.8264 119.625 81.5076 120.466 81.5076Z" fill="#E3CA88"/>
<path d="M125.936 81.4998C126.781 81.4998 127.465 80.8152 127.465 79.9707C127.465 79.1262 126.781 78.4417 125.936 78.4417C125.092 78.4417 124.407 79.1262 124.407 79.9707C124.407 80.8152 125.092 81.4998 125.936 81.4998Z" fill="#E3CA88"/>
<path d="M89.5202 82.5496L87.7608 82.5711C87.6653 82.5723 87.5888 82.6506 87.59 82.7461L87.6376 86.6415C87.6388 86.7369 87.7171 86.8134 87.8126 86.8122L89.572 86.7907C89.6675 86.7896 89.7439 86.7112 89.7428 86.6157L89.6952 82.7204C89.694 82.6249 89.6157 82.5485 89.5202 82.5496Z" fill="#C5A052"/>
<path d="M94.0146 82.5397L92.2705 82.558C92.1729 82.559 92.0946 82.6389 92.0956 82.7365L92.1366 86.6473C92.1376 86.7449 92.2175 86.8232 92.3151 86.8222L94.0592 86.8039C94.1568 86.8029 94.2351 86.723 94.2341 86.6254L94.1931 82.7146C94.1921 82.617 94.1122 82.5387 94.0146 82.5397Z" fill="#C5A052"/>
<path d="M149.065 82.8484L147.605 84.3236C147.518 84.4133 147.457 84.5183 147.424 84.6387C147.314 85.0356 147.124 85.2738 146.855 85.3532L146.898 82.8445C146.9 82.7088 146.968 82.6281 147.101 82.6025C147.98 82.4437 148.634 82.5256 149.065 82.8484Z" fill="#E3CA88"/>
<path d="M153.218 82.5491L151.52 82.5639C151.408 82.5649 151.317 82.6568 151.318 82.7693L151.352 86.6187C151.353 86.7311 151.445 86.8215 151.557 86.8205L153.255 86.8057C153.368 86.8047 153.458 86.7128 153.457 86.6003L153.423 82.7509C153.422 82.6385 153.331 82.5481 153.218 82.5491Z" fill="#C5A052"/>
<path d="M149.064 82.8484L149.045 86.4674C149.045 86.5187 149.035 86.5695 149.014 86.6165C148.994 86.6636 148.964 86.7059 148.927 86.7409C148.889 86.7759 148.845 86.8028 148.796 86.8198C148.748 86.8369 148.697 86.8438 148.646 86.8401L147.22 86.7363C146.967 86.7184 146.841 86.5814 146.844 86.3253L146.855 85.3533C147.124 85.2739 147.314 85.0357 147.424 84.6387C147.457 84.5183 147.517 84.4133 147.604 84.3237L149.064 82.8484Z" fill="#C5A052"/>
<path d="M113.56 85.3573C113.459 86.2043 114.04 86.9699 114.857 87.0674C115.675 87.1649 116.419 86.5573 116.52 85.7103C116.621 84.8634 116.04 84.0977 115.223 84.0003C114.406 83.9028 113.661 84.5104 113.56 85.3573Z" fill="#E3CA88"/>
<path d="M120.458 87.0745C121.294 87.0745 121.972 86.3968 121.972 85.5608C121.972 84.7248 121.294 84.0471 120.458 84.0471C119.622 84.0471 118.944 84.7248 118.944 85.5608C118.944 86.3968 119.622 87.0745 120.458 87.0745Z" fill="#D5B771"/>
<path d="M126.751 84.2812C126.825 84.5578 126.686 84.7589 126.332 84.8844C126.225 84.9254 126.134 84.9894 126.059 85.0765L125.253 86.0523C125.189 86.1291 125.157 86.2175 125.157 86.3174L125.16 86.5056C125.163 86.6081 125.114 86.6657 125.014 86.6785C124.981 86.6836 124.945 86.6836 124.907 86.6785C124.681 86.4703 124.523 86.1984 124.454 85.8987C124.386 85.599 124.41 85.2855 124.523 84.9996C124.605 84.7917 124.733 84.6046 124.896 84.4517C125.059 84.2988 125.255 84.1839 125.468 84.1152C125.68 84.0466 125.906 84.0258 126.128 84.0545C126.35 84.0832 126.563 84.1606 126.751 84.2812Z" fill="#E3CA88"/>
<path d="M126.75 84.2812C126.99 84.4335 127.182 84.6498 127.305 84.9057C127.427 85.1616 127.476 85.4468 127.445 85.7289C127.414 86.011 127.304 86.2787 127.128 86.5016C126.952 86.7244 126.718 86.8936 126.451 86.9898C126.189 87.0836 125.906 87.1043 125.634 87.0494C125.362 86.9946 125.11 86.8663 124.906 86.6786C124.945 86.6837 124.981 86.6837 125.014 86.6786C125.114 86.6658 125.162 86.6081 125.16 86.5057L125.156 86.3174C125.156 86.2175 125.188 86.1292 125.252 86.0523L126.059 85.0765C126.133 84.9894 126.224 84.9254 126.332 84.8844C126.685 84.7589 126.825 84.5579 126.75 84.2812Z" fill="#C5A052"/>
<path d="M84.0214 89.6022L84.0098 99.5833C84.0073 99.7165 83.9407 99.7818 83.8101 99.7793L81.4089 99.7754C81.2936 99.7754 81.236 99.7191 81.236 99.6064L81.2322 95.6032C81.2322 95.0371 80.9594 94.6837 80.4139 94.5428C80.3037 94.5146 80.1923 94.5057 80.0796 94.5159C79.3369 94.5825 78.9616 94.9885 78.954 95.7338L78.9117 99.4911C78.9091 99.6704 78.8195 99.7613 78.6428 99.7639L77.229 99.7831C77.0753 99.7831 76.9985 99.7075 76.9985 99.5564L76.9908 95.5993C76.9908 94.9795 76.6847 94.6184 76.0726 94.5159C75.9804 94.5006 75.8869 94.5006 75.7921 94.5159C75.0827 94.6235 74.7254 95.0346 74.7202 95.7492L74.6933 99.5257C74.6933 99.6819 74.6152 99.769 74.459 99.7869C73.8443 99.8561 73.2655 99.8074 72.7225 99.641L72.7417 95.5033C72.7442 94.9936 72.4971 94.6747 72.0002 94.5467C71.8568 94.5108 71.7159 94.5018 71.5776 94.5198C70.8681 94.6068 70.5108 95.0077 70.5057 95.7223L70.4711 99.5065C70.4686 99.6986 70.37 99.7946 70.1753 99.7946H68.5233C68.4836 99.7946 68.4444 99.7869 68.4078 99.7717C68.3711 99.7566 68.3379 99.7345 68.3101 99.7066C68.2822 99.6787 68.2602 99.6457 68.2454 99.6093C68.2305 99.573 68.2231 99.5341 68.2237 99.495L68.4311 87.5968C68.4337 87.4636 68.5028 87.397 68.6386 87.397L83.8139 87.4239C83.8645 87.4248 83.9128 87.4454 83.9486 87.4812C83.9845 87.517 84.005 87.5653 84.006 87.616L84.0214 89.6022ZM72.7408 90.7219C72.7407 90.7083 72.7379 90.6948 72.7327 90.6823C72.7274 90.6697 72.7197 90.6583 72.71 90.6488C72.7003 90.6392 72.6888 90.6316 72.6762 90.6264C72.6636 90.6213 72.6501 90.6187 72.6365 90.6188L70.5773 90.6295C70.5637 90.6296 70.5502 90.6324 70.5376 90.6376C70.5251 90.6429 70.5137 90.6506 70.5041 90.6603C70.4945 90.67 70.4869 90.6815 70.4818 90.6941C70.4766 90.7067 70.474 90.7202 70.4741 90.7338L70.4836 92.5471C70.4837 92.5608 70.4864 92.5742 70.4917 92.5868C70.497 92.5993 70.5047 92.6107 70.5144 92.6203C70.524 92.6299 70.5355 92.6375 70.5481 92.6426C70.5607 92.6478 70.5742 92.6504 70.5879 92.6503L72.6471 92.6395C72.6607 92.6395 72.6742 92.6367 72.6867 92.6314C72.6993 92.6261 72.7107 92.6184 72.7202 92.6088C72.7298 92.5991 72.7374 92.5876 72.7426 92.575C72.7477 92.5624 72.7503 92.5489 72.7502 92.5353L72.7408 90.7219ZM76.9963 90.851C76.9967 90.7899 76.9728 90.7311 76.9299 90.6876C76.887 90.6441 76.8285 90.6194 76.7674 90.6189L74.9618 90.6063C74.9315 90.6061 74.9015 90.6119 74.8734 90.6233C74.8454 90.6347 74.8199 90.6515 74.7983 90.6727C74.7767 90.694 74.7596 90.7193 74.7478 90.7471C74.736 90.775 74.7299 90.805 74.7296 90.8352L74.7185 92.4257C74.7181 92.4869 74.742 92.5456 74.7849 92.5892C74.8279 92.6327 74.8863 92.6574 74.9474 92.6578L76.7531 92.6704C76.7833 92.6706 76.8134 92.6649 76.8414 92.6535C76.8695 92.6421 76.895 92.6253 76.9165 92.604C76.9381 92.5828 76.9553 92.5575 76.967 92.5296C76.9788 92.5017 76.985 92.4718 76.9852 92.4415L76.9963 90.851ZM79.4957 92.5719L80.9594 92.6449C81.0977 92.6526 81.1681 92.5873 81.1707 92.449L81.2168 90.8585C80.638 90.5972 79.9733 90.5447 79.2229 90.701C79.0641 90.7343 78.9821 90.8329 78.977 90.9968L78.9463 92.353C78.9411 92.5322 79.0282 92.6142 79.2075 92.5988L79.4957 92.5719Z" fill="#1F1D1C"/>
<path d="M172.838 96.5216V99.426C172.838 99.4497 172.833 99.4732 172.824 99.4951C172.815 99.517 172.802 99.5369 172.785 99.5537C172.768 99.5705 172.748 99.5838 172.726 99.5928C172.704 99.6019 172.681 99.6066 172.657 99.6066H170.755C170.711 99.6066 170.668 99.5888 170.636 99.5571C170.604 99.5254 170.586 99.4824 170.586 99.4375L170.579 95.7148C170.579 95.1359 170.306 94.7518 169.76 94.5622C169.627 94.5161 169.493 94.4969 169.357 94.5046C168.642 94.5533 168.283 94.9349 168.277 95.6495L168.247 99.3453C168.244 99.4964 168.167 99.5784 168.016 99.5912L166.56 99.6949C166.36 98.5321 166.276 97.3181 166.307 96.0529C166.317 95.5662 166.245 95.1974 166.091 94.9464C165.573 94.1089 164.078 94.4354 164.044 95.5726C164.005 96.8456 163.999 98.1287 164.024 99.4222C164.027 99.5477 163.966 99.6104 163.84 99.6104L162.296 99.6066C162.178 99.6066 162.118 99.5477 162.115 99.4299L162.107 95.7532C162.105 95.0156 161.736 94.6045 161.001 94.52C160.898 94.5072 160.796 94.5123 160.694 94.5353C160.122 94.6583 159.834 95.013 159.829 95.5995L159.783 99.5259C159.78 99.6002 159.743 99.6373 159.672 99.6373L157.197 99.6258C157.128 99.6258 157.094 99.5912 157.094 99.5221V87.6008C157.094 87.4727 157.158 87.4087 157.286 87.4087L172.354 87.4317C172.432 87.4317 172.507 87.4622 172.563 87.5168C172.619 87.5713 172.651 87.6456 172.653 87.7237L172.838 96.5216ZM162.109 90.9254C162.108 90.847 162.076 90.772 162.02 90.717C161.964 90.6621 161.889 90.6315 161.81 90.6322L160.089 90.6472C160.05 90.6476 160.012 90.6555 159.976 90.6707C159.94 90.6859 159.908 90.708 159.881 90.7357C159.854 90.7634 159.832 90.7962 159.818 90.8322C159.803 90.8682 159.796 90.9068 159.796 90.9456L159.809 92.3901C159.809 92.4686 159.841 92.5435 159.897 92.5985C159.953 92.6535 160.029 92.684 160.107 92.6833L161.828 92.6683C161.867 92.668 161.905 92.66 161.941 92.6448C161.977 92.6297 162.009 92.6076 162.036 92.5799C162.064 92.5522 162.085 92.5194 162.1 92.4833C162.114 92.4473 162.122 92.4088 162.121 92.3699L162.109 90.9254ZM166.348 90.8627C166.348 90.83 166.341 90.7975 166.329 90.7671C166.317 90.7368 166.298 90.7092 166.275 90.6859C166.252 90.6626 166.225 90.6441 166.194 90.6315C166.164 90.6188 166.132 90.6123 166.099 90.6121L164.278 90.6058C164.245 90.6057 164.212 90.612 164.182 90.6244C164.152 90.6369 164.124 90.6552 164.101 90.6783C164.078 90.7014 164.059 90.7289 164.047 90.7591C164.034 90.7894 164.027 90.8218 164.027 90.8546L164.022 92.4221C164.022 92.4549 164.028 92.4874 164.04 92.5177C164.053 92.5481 164.071 92.5756 164.094 92.5989C164.117 92.6222 164.145 92.6407 164.175 92.6533C164.205 92.666 164.238 92.6726 164.271 92.6727L166.092 92.6791C166.124 92.6792 166.157 92.6728 166.187 92.6604C166.218 92.6479 166.245 92.6296 166.268 92.6065C166.292 92.5834 166.31 92.556 166.323 92.5257C166.336 92.4954 166.342 92.463 166.342 92.4302L166.348 90.8627ZM170.333 92.6989C170.369 92.7 170.406 92.6936 170.439 92.68C170.473 92.6664 170.504 92.646 170.529 92.6201C170.555 92.5941 170.575 92.5632 170.588 92.5291C170.601 92.4951 170.607 92.4587 170.606 92.4223L170.525 90.8702C170.521 90.8019 170.491 90.7378 170.441 90.6913C170.39 90.6447 170.324 90.6194 170.256 90.6205L168.508 90.6435C168.438 90.6445 168.372 90.6729 168.323 90.7225C168.274 90.7721 168.247 90.839 168.247 90.9086V92.3685C168.248 92.4362 168.274 92.501 168.321 92.5496C168.369 92.5981 168.433 92.6268 168.5 92.6298L170.333 92.6989Z" fill="#1F1D1C"/>
<path d="M89.6734 88.8685L87.668 90.532L87.6757 88.3383C87.6757 88.2026 87.7422 88.1206 87.8754 88.0924C89.3968 87.7595 89.9961 88.0182 89.6734 88.8685Z" fill="#E3CA88"/>
<path d="M93.9263 87.9911L92.3819 88.0019C92.2228 88.003 92.0947 88.1329 92.0958 88.292L92.122 92.0493C92.1231 92.2084 92.253 92.3365 92.4121 92.3354L93.9565 92.3246C94.1157 92.3235 94.2438 92.1936 94.2426 92.0345L94.2164 88.2772C94.2153 88.1181 94.0854 87.99 93.9263 87.9911Z" fill="#C5A052"/>
<path d="M148.818 88.0178L147.02 88.0209C146.916 88.0211 146.832 88.1055 146.832 88.2095L146.839 92.1359C146.839 92.2398 146.924 92.324 147.028 92.3238L148.826 92.3206C148.93 92.3205 149.014 92.236 149.014 92.1321L149.007 88.2057C149.007 88.1017 148.922 88.0176 148.818 88.0178Z" fill="#C5A052"/>
<path d="M153.152 87.9988L151.615 88.0015C151.461 88.0017 151.335 88.1275 151.335 88.2824L151.342 92.0551C151.342 92.21 151.468 92.3353 151.623 92.3351L153.16 92.3324C153.315 92.3321 153.44 92.2063 153.44 92.0514L153.433 88.2787C153.433 88.1239 153.307 87.9985 153.152 87.9988Z" fill="#C5A052"/>
<path d="M89.6734 88.8684L89.7656 92.0802C89.7667 92.1166 89.7603 92.1529 89.7467 92.1868C89.7331 92.2206 89.7127 92.2513 89.6868 92.2769C89.6608 92.3025 89.6299 92.3225 89.5958 92.3355C89.5618 92.3486 89.5254 92.3546 89.489 92.353L87.9369 92.2838C87.7679 92.2761 87.6821 92.1865 87.6795 92.0149L87.668 90.5319L89.6734 88.8684Z" fill="#C5A052"/>
<path d="M113.597 91.0789C113.586 91.9296 114.23 92.6273 115.034 92.6371C115.838 92.6469 116.498 91.9652 116.509 91.1144C116.519 90.2637 115.875 89.566 115.071 89.5562C114.267 89.5464 113.607 90.2281 113.597 91.0789Z" fill="#E3CA88"/>
<path d="M120.458 92.6642C121.296 92.6642 121.975 91.9848 121.975 91.1467C121.975 90.3086 121.296 89.6292 120.458 89.6292C119.62 89.6292 118.94 90.3086 118.94 91.1467C118.94 91.9848 119.62 92.6642 120.458 92.6642Z" fill="#D5B771"/>
<path d="M126.881 89.9557C126.005 90.596 125.339 91.3592 124.883 92.2454C124.665 92.0236 124.518 91.7377 124.462 91.4264C124.407 91.1151 124.445 90.7934 124.572 90.5051C124.667 90.2901 124.808 90.1006 124.985 89.9511C125.162 89.8016 125.37 89.6963 125.593 89.6432C125.816 89.5901 126.049 89.5906 126.272 89.6448C126.495 89.699 126.704 89.8054 126.881 89.9557Z" fill="#E3CA88"/>
<path d="M126.882 89.9558C127.049 90.0972 127.185 90.2743 127.28 90.475C127.375 90.6756 127.426 90.8951 127.431 91.1182C127.436 91.3412 127.394 91.5627 127.307 91.7673C127.221 91.9718 127.093 92.1547 126.931 92.3032C126.647 92.5633 126.277 92.7021 125.897 92.6914C125.517 92.6807 125.155 92.5213 124.884 92.2456C125.34 91.3594 126.006 90.5961 126.882 89.9558Z" fill="#C5A052"/>
<path d="M72.6366 90.6188L70.5774 90.6296C70.5201 90.6299 70.4739 90.6766 70.4742 90.7339L70.4837 92.5472C70.484 92.6045 70.5307 92.6507 70.5879 92.6504L72.6471 92.6396C72.7044 92.6393 72.7506 92.5926 72.7503 92.5353L72.7408 90.722C72.7405 90.6647 72.6939 90.6185 72.6366 90.6188Z" fill="#E3CA88"/>
<path d="M76.7676 90.619L74.962 90.6063C74.8346 90.6055 74.7307 90.7079 74.7298 90.8352L74.7187 92.4257C74.7178 92.553 74.8203 92.657 74.9476 92.6578L76.7533 92.6705C76.8806 92.6713 76.9845 92.5689 76.9854 92.4416L76.9965 90.8511C76.9974 90.7238 76.8949 90.6198 76.7676 90.619Z" fill="#C5A052"/>
<path d="M161.81 90.6321L160.089 90.6471C159.925 90.6485 159.794 90.7821 159.796 90.9455L159.808 92.39C159.81 92.5533 159.943 92.6846 160.107 92.6832L161.828 92.6682C161.991 92.6667 162.122 92.5331 162.121 92.3698L162.108 90.9253C162.107 90.7619 161.973 90.6306 161.81 90.6321Z" fill="#D5B771"/>
<path d="M166.099 90.612L164.278 90.6056C164.14 90.6051 164.028 90.7165 164.027 90.8545L164.022 92.4219C164.021 92.5598 164.133 92.672 164.271 92.6725L166.092 92.6789C166.23 92.6794 166.342 92.5679 166.342 92.43L166.348 90.8626C166.348 90.7246 166.237 90.6124 166.099 90.612Z" fill="#D5B771"/>
<path d="M170.332 92.6988L168.5 92.6297C168.432 92.6267 168.368 92.598 168.321 92.5495C168.274 92.5009 168.247 92.4361 168.246 92.3684V90.9085C168.246 90.8389 168.273 90.772 168.322 90.7224C168.371 90.6728 168.438 90.6445 168.507 90.6434L170.255 90.6204C170.324 90.6193 170.39 90.6447 170.44 90.6912C170.49 90.7377 170.52 90.8018 170.524 90.8701L170.605 92.4222C170.607 92.4587 170.601 92.495 170.588 92.529C170.574 92.5631 170.555 92.594 170.529 92.62C170.503 92.646 170.473 92.6664 170.439 92.6799C170.405 92.6935 170.369 92.6999 170.332 92.6988Z" fill="#D5B771"/>
<path d="M81.217 90.8585L80.2451 91.2619C80.1272 91.3106 80.0338 91.3874 79.9646 91.4924C79.7495 91.81 79.5932 92.1699 79.4959 92.572L79.2078 92.5989C79.0285 92.6142 78.9414 92.5323 78.9465 92.353L78.9772 90.9968C78.9824 90.8329 79.0643 90.7343 79.2231 90.701C79.9736 90.5447 80.6382 90.5973 81.217 90.8585Z" fill="#E3CA88"/>
<path d="M81.2172 90.8586L81.1711 92.4492C81.1686 92.5875 81.0981 92.6528 80.9598 92.6451L79.4961 92.5721C79.5934 92.17 79.7497 91.8101 79.9648 91.4926C80.034 91.3875 80.1274 91.3107 80.2453 91.262L81.2172 90.8586Z" fill="#C5A052"/>
<path d="M110.857 92.8833C110.839 93.288 110.872 93.6081 110.957 93.8438C111.208 94.5507 111.705 94.575 112.448 93.9168L112.421 99.4106C112.421 99.6053 112.518 99.7039 112.713 99.7064L113.466 99.7141C113.607 99.7141 113.677 99.6437 113.677 99.5028C113.677 98.34 113.681 97.0645 113.688 95.6763C113.696 94.6288 114.197 94.0602 115.191 93.9705C115.385 93.9526 115.584 94.0102 115.786 94.1434C116.429 94.5686 116.75 95.1654 116.75 95.9337L116.762 99.5182C116.762 99.5681 116.782 99.616 116.818 99.6513C116.854 99.6866 116.903 99.7064 116.954 99.7064L118.856 99.6987C118.971 99.6962 119.029 99.6373 119.029 99.522L119.067 95.5764C119.075 94.6646 119.528 94.1332 120.427 93.9821C120.547 93.9616 120.668 93.9667 120.788 93.9974C121.536 94.187 121.931 94.5507 121.971 95.0885C122.089 96.5945 122.111 98.0839 122.037 99.5566C121.968 100.484 121.781 101.088 121.476 101.37L105.997 101.424C106.194 101.398 106.392 101.366 106.589 101.328C106.788 101.289 106.804 101.215 106.635 101.105C106.614 101.089 106.608 101.07 106.616 101.047C106.641 100.97 106.687 100.91 106.754 100.867C106.941 100.746 107.048 100.581 107.077 100.371C107.095 100.246 107.137 100.129 107.203 100.021L108.878 97.3629L108.882 99.5297C108.882 99.6475 108.942 99.7064 109.063 99.7064H110.634C110.76 99.7064 110.822 99.645 110.822 99.522L110.857 92.8833Z" fill="#D5B771"/>
<path d="M172.837 96.5215C172.86 96.3371 172.929 96.195 173.045 96.0951C173.137 96.0183 173.191 95.9197 173.206 95.7993C173.244 95.4535 173.438 95.2781 173.786 95.2729C173.917 95.2704 174.023 95.3191 174.105 95.4189C174.336 95.6956 174.461 96.0298 174.482 96.4217L174.558 99.4029C174.561 99.5387 174.631 99.6066 174.77 99.6066H180.283C180.859 99.6066 181.164 99.8934 181.197 100.467C181.202 100.572 181.184 100.675 181.143 100.774C181 101.128 180.737 101.303 180.356 101.301L164.408 101.282C164.664 100.541 165.381 100.013 166.56 99.6949L168.016 99.5912C168.167 99.5784 168.244 99.4964 168.246 99.3453L168.277 95.6494C168.282 94.9349 168.642 94.5532 169.357 94.5046C169.492 94.4969 169.627 94.5161 169.76 94.5622C170.305 94.7517 170.578 95.1359 170.578 95.7148L170.586 99.4375C170.586 99.4823 170.604 99.5253 170.635 99.557C170.667 99.5887 170.71 99.6066 170.755 99.6066H172.657C172.68 99.6066 172.704 99.6019 172.726 99.5928C172.748 99.5837 172.768 99.5704 172.784 99.5537C172.801 99.5369 172.814 99.517 172.823 99.4951C172.833 99.4732 172.837 99.4497 172.837 99.426V96.5215Z" fill="#E3CA88"/>
<path d="M54.082 121.697L53.6514 117.855L80.2842 117.874C80.4546 117.874 80.5399 117.947 80.5399 118.092L80.5443 121.449C80.5443 121.504 80.5188 121.556 80.4734 121.595C80.428 121.634 80.3663 121.656 80.3021 121.656L54.082 121.697Z" fill="#E3CA88"/>
<path d="M169.282 117.925L169.838 121.859L162.61 121.84C162.381 121.84 162.267 121.759 162.267 121.598L162.288 118.113C162.288 118.087 162.296 118.061 162.31 118.037C162.324 118.012 162.345 117.99 162.371 117.972C162.398 117.953 162.429 117.939 162.463 117.929C162.498 117.918 162.534 117.913 162.572 117.913L169.282 117.925Z" fill="#D5B771"/>
<path d="M169.291 117.866L187.732 117.855C187.706 118.085 187.624 118.298 187.487 118.495C187.314 118.744 187.209 118.939 187.171 119.078C187.06 119.51 186.971 119.933 186.904 120.347C186.884 120.481 186.926 120.599 187.031 120.698L187.544 121.188C187.57 121.213 187.583 121.243 187.583 121.278L187.587 121.431C187.587 121.519 187.536 121.562 187.434 121.562C187.282 121.56 187.198 121.6 187.18 121.682L169.738 121.697L169.291 117.866Z" fill="#E3CA88"/>
<path d="M184.274 117.872C187.84 117.851 191.395 117.85 194.939 117.868C195.836 117.87 196.501 117.978 196.933 118.19C198.54 118.982 198.126 120.814 196.568 121.487C196.089 121.694 195.268 121.799 194.106 121.802C191.422 121.804 188.746 121.81 186.077 121.817L185.914 119.082C185.907 118.956 185.836 118.851 185.701 118.767L184.274 117.872Z" fill="#E3CA88"/>
<path d="M59.3655 117.932L59.7982 121.642C51.9014 121.53 43.8453 121.549 35.6299 121.696C34.7525 121.713 33.9953 121.398 33.3582 120.752C32.4838 119.865 32.939 118.568 34.1786 118.066C34.5391 117.919 35.074 117.848 35.7832 117.856C43.689 117.924 51.5498 117.949 59.3655 117.932Z" fill="#D5B771"/>
<path d="M74.6476 113.256V106.341H75.4352V113.256H74.6476ZM76.6056 113.256V106.341H77.6718L82.743 112.373V106.341H83.521V113.256H82.4549L77.3836 107.225V113.256H76.6056ZM88.4004 113.256L84.3953 106.341H85.3077L88.8519 112.498L92.3864 106.341H93.2988L89.3033 113.256H88.4004ZM94.249 113.256V106.341H100.559V107.119H95.027V109.405H99.4739V110.192H95.027V112.478H100.559V113.256H94.249ZM102.688 113.256C102.477 113.256 102.281 113.205 102.102 113.103C101.929 113 101.791 112.863 101.689 112.69C101.587 112.51 101.535 112.315 101.535 112.104V111.835H102.313V112.104C102.313 112.206 102.348 112.296 102.419 112.373C102.496 112.443 102.585 112.478 102.688 112.478H107.298C107.401 112.478 107.487 112.443 107.557 112.373C107.634 112.296 107.673 112.206 107.673 112.104V110.557C107.673 110.455 107.634 110.369 107.557 110.298C107.487 110.228 107.401 110.192 107.298 110.192H102.688C102.477 110.192 102.281 110.141 102.102 110.039C101.929 109.93 101.791 109.789 101.689 109.616C101.587 109.443 101.535 109.251 101.535 109.04V107.494C101.535 107.282 101.587 107.09 101.689 106.917C101.791 106.738 101.929 106.597 102.102 106.495C102.281 106.392 102.477 106.341 102.688 106.341H107.298C107.509 106.341 107.701 106.392 107.874 106.495C108.054 106.597 108.195 106.738 108.297 106.917C108.399 107.09 108.451 107.282 108.451 107.494V107.762H107.673V107.494C107.673 107.391 107.634 107.305 107.557 107.234C107.487 107.157 107.401 107.119 107.298 107.119H102.688C102.585 107.119 102.496 107.157 102.419 107.234C102.348 107.305 102.313 107.391 102.313 107.494V109.04C102.313 109.142 102.348 109.229 102.419 109.299C102.496 109.37 102.585 109.405 102.688 109.405H107.298C107.509 109.405 107.701 109.459 107.874 109.568C108.054 109.671 108.195 109.808 108.297 109.981C108.399 110.154 108.451 110.346 108.451 110.557V112.104C108.451 112.315 108.399 112.51 108.297 112.69C108.195 112.863 108.054 113 107.874 113.103C107.701 113.205 107.509 113.256 107.298 113.256H102.688ZM112.209 113.256V107.119H109.135V106.341H116.05V107.119H112.987V113.256H112.209ZM117.902 113.256C117.691 113.256 117.496 113.205 117.316 113.103C117.143 113 117.006 112.863 116.903 112.69C116.801 112.51 116.75 112.315 116.75 112.104V107.494C116.75 107.282 116.801 107.09 116.903 106.917C117.006 106.738 117.143 106.597 117.316 106.495C117.496 106.392 117.691 106.341 117.902 106.341H122.512C122.724 106.341 122.916 106.392 123.089 106.495C123.268 106.597 123.409 106.738 123.511 106.917C123.614 107.09 123.665 107.282 123.665 107.494V112.104C123.665 112.315 123.614 112.51 123.511 112.69C123.409 112.863 123.268 113 123.089 113.103C122.916 113.205 122.724 113.256 122.512 113.256H117.902ZM117.902 112.478H122.512C122.615 112.478 122.701 112.443 122.772 112.373C122.848 112.296 122.887 112.206 122.887 112.104V107.494C122.887 107.391 122.848 107.305 122.772 107.234C122.701 107.157 122.615 107.119 122.512 107.119H117.902C117.8 107.119 117.71 107.157 117.633 107.234C117.563 107.305 117.528 107.391 117.528 107.494V112.104C117.528 112.206 117.563 112.296 117.633 112.373C117.71 112.443 117.8 112.478 117.902 112.478ZM130.562 113.256L128.305 110.567H129.323L131.59 113.247V113.256H130.562ZM124.723 113.256V106.351H130.485C130.697 106.351 130.889 106.405 131.062 106.514C131.241 106.616 131.382 106.754 131.484 106.927C131.587 107.1 131.638 107.292 131.638 107.503V109.53C131.638 109.741 131.587 109.933 131.484 110.106C131.382 110.279 131.241 110.42 131.062 110.529C130.889 110.631 130.697 110.682 130.485 110.682H125.501V113.256H124.723ZM125.875 109.895H130.485C130.588 109.895 130.674 109.86 130.745 109.789C130.822 109.719 130.86 109.632 130.86 109.53V107.503C130.86 107.401 130.822 107.314 130.745 107.244C130.674 107.167 130.588 107.129 130.485 107.129H125.875C125.773 107.129 125.683 107.167 125.606 107.244C125.536 107.314 125.501 107.401 125.501 107.503V109.53C125.501 109.632 125.536 109.719 125.606 109.789C125.683 109.86 125.773 109.895 125.875 109.895ZM135.294 113.256V106.341H140.759C140.97 106.341 141.162 106.392 141.335 106.495C141.515 106.597 141.655 106.738 141.758 106.917C141.86 107.09 141.912 107.282 141.912 107.494V108.963C141.912 109.053 141.899 109.142 141.873 109.232C141.854 109.315 141.825 109.395 141.787 109.472C141.928 109.683 142.033 109.866 142.104 110.02C142.174 110.173 142.209 110.33 142.209 110.49V112.104C142.209 112.315 142.158 112.51 142.056 112.69C141.953 112.863 141.812 113 141.633 113.103C141.46 113.205 141.268 113.256 141.057 113.256H135.294ZM136.447 112.478H141.057C141.159 112.478 141.246 112.443 141.316 112.373C141.393 112.296 141.431 112.206 141.431 112.104V110.49C141.431 110.388 141.393 110.301 141.316 110.231C141.246 110.154 141.159 110.116 141.057 110.116H136.447C136.344 110.116 136.254 110.154 136.178 110.231C136.107 110.301 136.072 110.388 136.072 110.49V112.104C136.072 112.206 136.107 112.296 136.178 112.373C136.254 112.443 136.344 112.478 136.447 112.478ZM136.447 109.338H140.759C140.861 109.338 140.948 109.302 141.018 109.232C141.089 109.155 141.124 109.066 141.124 108.963V107.494C141.124 107.391 141.089 107.305 141.018 107.234C140.948 107.157 140.861 107.119 140.759 107.119H136.447C136.344 107.119 136.254 107.157 136.178 107.234C136.107 107.305 136.072 107.391 136.072 107.494V108.963C136.072 109.066 136.107 109.155 136.178 109.232C136.254 109.302 136.344 109.338 136.447 109.338ZM143.266 113.256V106.331H144.044V112.478H150.181V113.256H143.266ZM151.875 113.256C151.663 113.256 151.468 113.205 151.289 113.103C151.116 113 150.978 112.863 150.876 112.69C150.773 112.51 150.722 112.315 150.722 112.104V107.494C150.722 107.282 150.773 107.09 150.876 106.917C150.978 106.738 151.116 106.597 151.289 106.495C151.468 106.392 151.663 106.341 151.875 106.341H156.485C156.696 106.341 156.888 106.392 157.061 106.495C157.241 106.597 157.381 106.738 157.484 106.917C157.586 107.09 157.638 107.282 157.638 107.494V112.104C157.638 112.315 157.586 112.51 157.484 112.69C157.381 112.863 157.241 113 157.061 113.103C156.888 113.205 156.696 113.256 156.485 113.256H151.875ZM151.875 112.478H156.485C156.587 112.478 156.674 112.443 156.744 112.373C156.821 112.296 156.86 112.206 156.86 112.104V107.494C156.86 107.391 156.821 107.305 156.744 107.234C156.674 107.157 156.587 107.119 156.485 107.119H151.875C151.772 107.119 151.683 107.157 151.606 107.234C151.535 107.305 151.5 107.391 151.5 107.494V112.104C151.5 112.206 151.535 112.296 151.606 112.373C151.683 112.443 151.772 112.478 151.875 112.478ZM159.848 113.256C159.636 113.256 159.441 113.205 159.262 113.103C159.089 113 158.951 112.863 158.849 112.69C158.746 112.51 158.695 112.315 158.695 112.104V107.494C158.695 107.282 158.746 107.09 158.849 106.917C158.951 106.738 159.089 106.597 159.262 106.495C159.441 106.392 159.636 106.341 159.848 106.341H165.591V107.119H159.848C159.745 107.119 159.656 107.157 159.579 107.234C159.508 107.305 159.473 107.391 159.473 107.494V112.104C159.473 112.206 159.508 112.296 159.579 112.373C159.656 112.443 159.745 112.478 159.848 112.478H165.591V113.256H159.848Z" fill="white"/>
<path d="M85.0629 121.087C84.9784 121.087 84.9002 121.066 84.8285 121.025C84.7594 120.984 84.7043 120.929 84.6633 120.86C84.6224 120.789 84.6019 120.71 84.6019 120.626V118.782C84.6019 118.697 84.6224 118.62 84.6633 118.551C84.7043 118.48 84.7594 118.423 84.8285 118.382C84.9002 118.341 84.9784 118.321 85.0629 118.321H87.3603V118.632H85.0629C85.0219 118.632 84.986 118.647 84.9553 118.678C84.9271 118.706 84.9131 118.741 84.9131 118.782V120.626C84.9131 120.667 84.9271 120.703 84.9553 120.733C84.986 120.762 85.0219 120.776 85.0629 120.776H87.3603V121.087H85.0629ZM88.2065 121.087C88.122 121.087 88.0439 121.066 87.9722 121.025C87.903 120.982 87.8467 120.926 87.8031 120.856C87.7622 120.785 87.7417 120.707 87.7417 120.622V119.324C87.7417 119.239 87.7622 119.162 87.8031 119.093C87.8467 119.021 87.903 118.965 87.9722 118.924C88.0439 118.88 88.122 118.859 88.2065 118.859H89.5435C89.6306 118.859 89.7087 118.88 89.7779 118.924C89.8496 118.965 89.9059 119.021 89.9469 119.093C89.9904 119.162 90.0122 119.239 90.0122 119.324V120.622C90.0122 120.707 89.9904 120.785 89.9469 120.856C89.9059 120.926 89.8496 120.982 89.7779 121.025C89.7087 121.066 89.6306 121.087 89.5435 121.087H88.2065ZM88.2065 120.772H89.5435C89.5845 120.772 89.6191 120.758 89.6472 120.73C89.678 120.699 89.6933 120.663 89.6933 120.622V119.324C89.6933 119.283 89.678 119.248 89.6472 119.22C89.6191 119.189 89.5845 119.174 89.5435 119.174H88.2065C88.1656 119.174 88.1297 119.189 88.099 119.22C88.0708 119.248 88.0567 119.283 88.0567 119.324V120.622C88.0567 120.663 88.0708 120.699 88.099 120.73C88.1297 120.758 88.1656 120.772 88.2065 120.772ZM90.357 121.087V118.859H92.1626C92.2471 118.859 92.324 118.88 92.3931 118.924C92.4649 118.965 92.5212 119.021 92.5622 119.093C92.6057 119.162 92.6275 119.239 92.6275 119.324V121.087H92.3125V119.324C92.3125 119.283 92.2971 119.248 92.2664 119.22C92.2382 119.189 92.2036 119.174 92.1626 119.174H90.8257C90.7847 119.174 90.7488 119.189 90.7181 119.22C90.6874 119.248 90.672 119.283 90.672 119.324V121.087H90.357ZM93.032 121.087V118.859H94.8377C94.9222 118.859 94.999 118.88 95.0682 118.924C95.1399 118.965 95.1962 119.021 95.2372 119.093C95.2808 119.162 95.3025 119.239 95.3025 119.324V121.087H94.9875V119.324C94.9875 119.283 94.9721 119.248 94.9414 119.22C94.9132 119.189 94.8786 119.174 94.8377 119.174H93.5007C93.4597 119.174 93.4239 119.189 93.3931 119.22C93.3624 119.248 93.347 119.283 93.347 119.324V121.087H93.032ZM96.1604 121.087C96.0759 121.087 95.9977 121.066 95.926 121.025C95.8569 120.982 95.8005 120.926 95.757 120.856C95.716 120.785 95.6955 120.707 95.6955 120.622V119.324C95.6955 119.239 95.716 119.162 95.757 119.093C95.8005 119.021 95.8569 118.965 95.926 118.924C95.9977 118.88 96.0759 118.859 96.1604 118.859H97.4973C97.5844 118.859 97.6625 118.88 97.7317 118.924C97.8034 118.965 97.8598 119.021 97.9007 119.093C97.9443 119.162 97.966 119.239 97.966 119.324V120.13H96.0105V120.622C96.0105 120.663 96.0246 120.699 96.0528 120.73C96.0835 120.758 96.1194 120.772 96.1604 120.772H97.966V121.087H96.1604ZM96.0105 119.815H97.6472V119.324C97.6472 119.283 97.6318 119.248 97.6011 119.22C97.5729 119.189 97.5383 119.174 97.4973 119.174H96.1604C96.1194 119.174 96.0835 119.189 96.0528 119.22C96.0246 119.248 96.0105 119.283 96.0105 119.324V119.815ZM98.7454 121.087C98.6609 121.087 98.5827 121.066 98.511 121.025C98.4419 120.982 98.3855 120.926 98.342 120.856C98.301 120.785 98.2805 120.707 98.2805 120.622V119.324C98.2805 119.239 98.301 119.162 98.342 119.093C98.3855 119.021 98.4419 118.965 98.511 118.924C98.5827 118.88 98.6609 118.859 98.7454 118.859H100.543V119.174H98.7454C98.7044 119.174 98.6685 119.189 98.6378 119.22C98.6096 119.248 98.5955 119.283 98.5955 119.324V120.622C98.5955 120.663 98.6096 120.699 98.6378 120.73C98.6685 120.758 98.7044 120.772 98.7454 120.772H100.551V121.087H98.7454ZM101.327 121.087C101.24 121.087 101.16 121.066 101.089 121.025C101.019 120.982 100.964 120.926 100.923 120.856C100.882 120.785 100.862 120.707 100.862 120.622V118.129H101.177V118.859H102.141V119.174H101.177V120.622C101.177 120.663 101.191 120.699 101.219 120.73C101.25 120.758 101.286 120.772 101.327 120.772H102.141V121.087H101.327ZM102.453 121.087V118.859H102.768V121.087H102.453ZM102.453 118.444V118.129H102.768V118.444H102.453ZM103.203 121.087V118.859H105.009C105.093 118.859 105.17 118.88 105.239 118.924C105.311 118.965 105.367 119.021 105.408 119.093C105.452 119.162 105.474 119.239 105.474 119.324V121.087H105.159V119.324C105.159 119.283 105.143 119.248 105.113 119.22C105.084 119.189 105.05 119.174 105.009 119.174H103.672C103.631 119.174 103.595 119.189 103.564 119.22C103.534 119.248 103.518 119.283 103.518 119.324V121.087H103.203ZM106.239 121.967V121.648H107.63C107.671 121.648 107.706 121.632 107.734 121.602C107.765 121.574 107.78 121.539 107.78 121.498V121.087H106.293C106.209 121.087 106.13 121.066 106.059 121.025C105.99 120.982 105.933 120.926 105.89 120.856C105.849 120.785 105.828 120.707 105.828 120.622V119.324C105.828 119.239 105.849 119.162 105.89 119.093C105.933 119.021 105.99 118.965 106.059 118.924C106.13 118.88 106.209 118.859 106.293 118.859H107.63C107.717 118.859 107.795 118.88 107.864 118.924C107.936 118.965 107.992 119.021 108.033 119.093C108.074 119.162 108.095 119.239 108.095 119.324V121.498C108.095 121.585 108.074 121.663 108.033 121.732C107.992 121.804 107.936 121.86 107.864 121.901C107.795 121.945 107.717 121.967 107.63 121.967H106.239ZM106.293 120.772H107.63C107.671 120.772 107.706 120.758 107.734 120.73C107.765 120.699 107.78 120.663 107.78 120.622V119.324C107.78 119.283 107.765 119.248 107.734 119.22C107.706 119.189 107.671 119.174 107.63 119.174H106.293C106.252 119.174 106.216 119.189 106.186 119.22C106.157 119.248 106.143 119.283 106.143 119.324V120.622C106.143 120.663 106.157 120.699 106.186 120.73C106.216 120.758 106.252 120.772 106.293 120.772ZM109.555 121.087V118.325H111.86C111.945 118.325 112.022 118.346 112.091 118.39C112.162 118.431 112.219 118.486 112.26 118.555C112.301 118.624 112.321 118.701 112.321 118.786V119.596C112.321 119.681 112.301 119.758 112.26 119.827C112.219 119.896 112.162 119.952 112.091 119.996C112.022 120.037 111.945 120.057 111.86 120.057H109.866V121.087H109.555ZM110.016 119.742H111.86C111.901 119.742 111.936 119.728 111.964 119.7C111.995 119.672 112.01 119.637 112.01 119.596V118.786C112.01 118.745 111.995 118.71 111.964 118.682C111.936 118.651 111.901 118.636 111.86 118.636H110.016C109.975 118.636 109.939 118.651 109.909 118.682C109.88 118.71 109.866 118.745 109.866 118.786V119.596C109.866 119.637 109.88 119.672 109.909 119.7C109.939 119.728 109.975 119.742 110.016 119.742ZM113.04 121.087C112.955 121.087 112.877 121.066 112.805 121.025C112.736 120.982 112.68 120.926 112.636 120.856C112.595 120.785 112.575 120.707 112.575 120.622V119.324C112.575 119.239 112.595 119.162 112.636 119.093C112.68 119.021 112.736 118.965 112.805 118.924C112.877 118.88 112.955 118.859 113.04 118.859H114.377C114.464 118.859 114.542 118.88 114.611 118.924C114.683 118.965 114.739 119.021 114.78 119.093C114.824 119.162 114.845 119.239 114.845 119.324V120.13H112.89V120.622C112.89 120.663 112.904 120.699 112.932 120.73C112.963 120.758 112.999 120.772 113.04 120.772H114.845V121.087H113.04ZM112.89 119.815H114.527V119.324C114.527 119.283 114.511 119.248 114.48 119.22C114.452 119.189 114.418 119.174 114.377 119.174H113.04C112.999 119.174 112.963 119.189 112.932 119.22C112.904 119.248 112.89 119.283 112.89 119.324V119.815ZM115.7 121.087C115.615 121.087 115.537 121.066 115.465 121.025C115.396 120.982 115.34 120.926 115.296 120.856C115.255 120.785 115.235 120.707 115.235 120.622V119.324C115.235 119.239 115.255 119.162 115.296 119.093C115.34 119.021 115.396 118.965 115.465 118.924C115.537 118.88 115.615 118.859 115.7 118.859H117.037C117.124 118.859 117.202 118.88 117.271 118.924C117.343 118.965 117.399 119.021 117.44 119.093C117.484 119.162 117.505 119.239 117.505 119.324V120.622C117.505 120.707 117.484 120.785 117.44 120.856C117.399 120.926 117.343 120.982 117.271 121.025C117.202 121.066 117.124 121.087 117.037 121.087H115.7ZM115.7 120.772H117.037C117.078 120.772 117.112 120.758 117.14 120.73C117.171 120.699 117.187 120.663 117.187 120.622V119.324C117.187 119.283 117.171 119.248 117.14 119.22C117.112 119.189 117.078 119.174 117.037 119.174H115.7C115.659 119.174 115.623 119.189 115.592 119.22C115.564 119.248 115.55 119.283 115.55 119.324V120.622C115.55 120.663 115.564 120.699 115.592 120.73C115.623 120.758 115.659 120.772 115.7 120.772ZM117.906 121.971V118.859H119.712C119.797 118.859 119.874 118.88 119.943 118.924C120.014 118.965 120.071 119.021 120.112 119.093C120.155 119.162 120.177 119.239 120.177 119.324V120.622C120.177 120.707 120.155 120.785 120.112 120.856C120.071 120.926 120.014 120.982 119.943 121.025C119.874 121.066 119.797 121.087 119.712 121.087H118.222V121.971H117.906ZM118.375 120.772H119.712C119.753 120.772 119.788 120.758 119.816 120.73C119.847 120.699 119.862 120.663 119.862 120.622V119.324C119.862 119.283 119.847 119.248 119.816 119.22C119.788 119.189 119.753 119.174 119.712 119.174H118.375C118.334 119.174 118.298 119.189 118.268 119.22C118.237 119.248 118.222 119.283 118.222 119.324V120.622C118.222 120.663 118.237 120.699 118.268 120.73C118.298 120.758 118.334 120.772 118.375 120.772ZM120.915 121.087C120.83 121.087 120.752 121.066 120.681 121.025C120.611 120.982 120.555 120.926 120.512 120.856C120.471 120.785 120.45 120.707 120.45 120.622V118.129H120.765V120.622C120.765 120.663 120.779 120.699 120.807 120.73C120.838 120.758 120.874 120.772 120.915 120.772H121.291V121.087H120.915ZM122.014 121.087C121.93 121.087 121.851 121.066 121.78 121.025C121.711 120.982 121.654 120.926 121.611 120.856C121.57 120.785 121.549 120.707 121.549 120.622V119.324C121.549 119.239 121.57 119.162 121.611 119.093C121.654 119.021 121.711 118.965 121.78 118.924C121.851 118.88 121.93 118.859 122.014 118.859H123.351C123.438 118.859 123.516 118.88 123.585 118.924C123.657 118.965 123.713 119.021 123.754 119.093C123.798 119.162 123.82 119.239 123.82 119.324V120.13H121.864V120.622C121.864 120.663 121.878 120.699 121.907 120.73C121.937 120.758 121.973 120.772 122.014 120.772H123.82V121.087H122.014ZM121.864 119.815H123.501V119.324C123.501 119.283 123.486 119.248 123.455 119.22C123.427 119.189 123.392 119.174 123.351 119.174H122.014C121.973 119.174 121.937 119.189 121.907 119.22C121.878 119.248 121.864 119.283 121.864 119.324V119.815ZM126.07 121.087L125.195 118.859H125.533L126.209 120.518L126.927 118.859H127.342L128.107 120.514L128.737 118.859H129.079L128.237 121.087H127.965L127.135 119.247L126.347 121.087H126.07ZM129.376 121.087V118.859H129.691V121.087H129.376ZM129.376 118.444V118.129H129.691V118.444H129.376ZM130.643 121.087C130.556 121.087 130.477 121.066 130.405 121.025C130.336 120.982 130.281 120.926 130.24 120.856C130.199 120.785 130.179 120.707 130.179 120.622V118.129H130.494V118.859H131.458V119.174H130.494V120.622C130.494 120.663 130.508 120.699 130.536 120.73C130.567 120.758 130.602 120.772 130.643 120.772H131.458V121.087H130.643ZM131.777 121.087V118.129H132.092V118.859H133.583C133.667 118.859 133.744 118.88 133.813 118.924C133.885 118.965 133.941 119.021 133.982 119.093C134.026 119.162 134.047 119.239 134.047 119.324V121.087H133.732V119.324C133.732 119.283 133.717 119.248 133.686 119.22C133.658 119.189 133.624 119.174 133.583 119.174H132.246C132.205 119.174 132.169 119.189 132.138 119.22C132.107 119.248 132.092 119.283 132.092 119.324V121.087H131.777ZM135.398 121.087V118.325H137.703C137.787 118.325 137.864 118.346 137.933 118.39C138.005 118.431 138.061 118.486 138.102 118.555C138.143 118.624 138.164 118.701 138.164 118.786V119.596C138.164 119.681 138.143 119.758 138.102 119.827C138.061 119.896 138.005 119.952 137.933 119.996C137.864 120.037 137.787 120.057 137.703 120.057H135.709V121.087H135.398ZM135.859 119.742H137.703C137.744 119.742 137.778 119.728 137.806 119.7C137.837 119.672 137.853 119.637 137.853 119.596V118.786C137.853 118.745 137.837 118.71 137.806 118.682C137.778 118.651 137.744 118.636 137.703 118.636H135.859C135.818 118.636 135.782 118.651 135.751 118.682C135.723 118.71 135.709 118.745 135.709 118.786V119.596C135.709 119.637 135.723 119.672 135.751 119.7C135.782 119.728 135.818 119.742 135.859 119.742ZM138.421 121.087V119.324C138.421 119.239 138.442 119.162 138.483 119.093C138.526 119.021 138.583 118.965 138.652 118.924C138.723 118.88 138.802 118.859 138.886 118.859H140.139V119.174H138.886C138.845 119.174 138.809 119.189 138.779 119.22C138.75 119.248 138.736 119.283 138.736 119.324V121.087H138.421ZM140.829 121.087C140.745 121.087 140.667 121.066 140.595 121.025C140.526 120.982 140.47 120.926 140.426 120.856C140.385 120.785 140.365 120.707 140.365 120.622V119.324C140.365 119.239 140.385 119.162 140.426 119.093C140.47 119.021 140.526 118.965 140.595 118.924C140.667 118.88 140.745 118.859 140.829 118.859H142.166C142.253 118.859 142.332 118.88 142.401 118.924C142.472 118.965 142.529 119.021 142.57 119.093C142.613 119.162 142.635 119.239 142.635 119.324V120.622C142.635 120.707 142.613 120.785 142.57 120.856C142.529 120.926 142.472 120.982 142.401 121.025C142.332 121.066 142.253 121.087 142.166 121.087H140.829ZM140.829 120.772H142.166C142.207 120.772 142.242 120.758 142.27 120.73C142.301 120.699 142.316 120.663 142.316 120.622V119.324C142.316 119.283 142.301 119.248 142.27 119.22C142.242 119.189 142.207 119.174 142.166 119.174H140.829C140.788 119.174 140.753 119.189 140.722 119.22C140.694 119.248 140.68 119.283 140.68 119.324V120.622C140.68 120.663 140.694 120.699 140.722 120.73C140.753 120.758 140.788 120.772 140.829 120.772ZM143.036 121.971V118.859H144.842C144.926 118.859 145.003 118.88 145.072 118.924C145.144 118.965 145.2 119.021 145.241 119.093C145.285 119.162 145.307 119.239 145.307 119.324V120.622C145.307 120.707 145.285 120.785 145.241 120.856C145.2 120.926 145.144 120.982 145.072 121.025C145.003 121.066 144.926 121.087 144.842 121.087H143.351V121.971H143.036ZM143.505 120.772H144.842C144.883 120.772 144.917 120.758 144.946 120.73C144.976 120.699 144.992 120.663 144.992 120.622V119.324C144.992 119.283 144.976 119.248 144.946 119.22C144.917 119.189 144.883 119.174 144.842 119.174H143.505C143.464 119.174 143.428 119.189 143.397 119.22C143.367 119.248 143.351 119.283 143.351 119.324V120.622C143.351 120.663 143.367 120.699 143.397 120.73C143.428 120.758 143.464 120.772 143.505 120.772ZM146.041 121.087C145.956 121.087 145.878 121.066 145.806 121.025C145.737 120.982 145.681 120.926 145.637 120.856C145.596 120.785 145.576 120.707 145.576 120.622V119.324C145.576 119.239 145.596 119.162 145.637 119.093C145.681 119.021 145.737 118.965 145.806 118.924C145.878 118.88 145.956 118.859 146.041 118.859H147.378C147.465 118.859 147.543 118.88 147.612 118.924C147.684 118.965 147.74 119.021 147.781 119.093C147.825 119.162 147.846 119.239 147.846 119.324V120.13H145.891V120.622C145.891 120.663 145.905 120.699 145.933 120.73C145.964 120.758 146 120.772 146.041 120.772H147.846V121.087H146.041ZM145.891 119.815H147.527V119.324C147.527 119.283 147.512 119.248 147.481 119.22C147.453 119.189 147.419 119.174 147.378 119.174H146.041C146 119.174 145.964 119.189 145.933 119.22C145.905 119.248 145.891 119.283 145.891 119.324V119.815ZM148.221 121.087V119.324C148.221 119.239 148.241 119.162 148.282 119.093C148.326 119.021 148.382 118.965 148.451 118.924C148.523 118.88 148.601 118.859 148.686 118.859H149.938V119.174H148.686C148.645 119.174 148.609 119.189 148.578 119.22C148.55 119.248 148.536 119.283 148.536 119.324V121.087H148.221ZM150.656 121.087C150.569 121.087 150.489 121.066 150.417 121.025C150.348 120.982 150.293 120.926 150.252 120.856C150.211 120.785 150.191 120.707 150.191 120.622V118.129H150.506V118.859H151.47V119.174H150.506V120.622C150.506 120.663 150.52 120.699 150.548 120.73C150.579 120.758 150.615 120.772 150.656 120.772H151.47V121.087H150.656ZM151.781 121.087V118.859H152.096V121.087H151.781ZM151.781 118.444V118.129H152.096V118.444H151.781ZM153.042 121.087C152.957 121.087 152.879 121.066 152.807 121.025C152.738 120.982 152.682 120.926 152.638 120.856C152.597 120.785 152.577 120.707 152.577 120.622V119.324C152.577 119.239 152.597 119.162 152.638 119.093C152.682 119.021 152.738 118.965 152.807 118.924C152.879 118.88 152.957 118.859 153.042 118.859H154.379C154.466 118.859 154.544 118.88 154.613 118.924C154.685 118.965 154.741 119.021 154.782 119.093C154.825 119.162 154.847 119.239 154.847 119.324V120.13H152.892V120.622C152.892 120.663 152.906 120.699 152.934 120.73C152.965 120.758 153.001 120.772 153.042 120.772H154.847V121.087H153.042ZM152.892 119.815H154.528V119.324C154.528 119.283 154.513 119.248 154.482 119.22C154.454 119.189 154.42 119.174 154.379 119.174H153.042C153.001 119.174 152.965 119.189 152.934 119.22C152.906 119.248 152.892 119.283 152.892 119.324V119.815ZM155.69 121.087C155.606 121.087 155.527 121.066 155.456 121.025C155.387 120.982 155.33 120.926 155.287 120.856C155.246 120.785 155.225 120.707 155.225 120.622V120.591H155.54V120.622C155.54 120.663 155.554 120.699 155.582 120.73C155.613 120.758 155.649 120.772 155.69 120.772H157.027C157.068 120.772 157.103 120.758 157.131 120.73C157.161 120.699 157.177 120.663 157.177 120.622V120.28C157.177 120.239 157.161 120.205 157.131 120.176C157.103 120.146 157.068 120.13 157.027 120.13H155.69C155.606 120.13 155.527 120.11 155.456 120.069C155.387 120.025 155.33 119.969 155.287 119.9C155.246 119.828 155.225 119.75 155.225 119.665V119.324C155.225 119.239 155.246 119.162 155.287 119.093C155.33 119.021 155.387 118.965 155.456 118.924C155.527 118.88 155.606 118.859 155.69 118.859H157.027C157.114 118.859 157.192 118.88 157.261 118.924C157.333 118.965 157.389 119.021 157.43 119.093C157.474 119.162 157.496 119.239 157.496 119.324V119.354H157.177V119.324C157.177 119.283 157.161 119.248 157.131 119.22C157.103 119.189 157.068 119.174 157.027 119.174H155.69C155.649 119.174 155.613 119.189 155.582 119.22C155.554 119.248 155.54 119.283 155.54 119.324V119.665C155.54 119.706 155.554 119.742 155.582 119.773C155.613 119.801 155.649 119.815 155.69 119.815H157.027C157.114 119.815 157.192 119.837 157.261 119.881C157.333 119.922 157.389 119.978 157.43 120.05C157.474 120.119 157.496 120.196 157.496 120.28V120.622C157.496 120.707 157.474 120.785 157.43 120.856C157.389 120.926 157.333 120.982 157.261 121.025C157.192 121.066 157.114 121.087 157.027 121.087H155.69Z" fill="white"/>
</svg>
